# Blender 4.3.0
# www.blender.org
o Aircraft_carrier_upg_1
v 0.730368 0.312169 -0.156084
v 0.573007 -0.000000 -0.033559
v 0.730368 0.312169 0.156084
v 0.573007 -0.000000 0.033559
v -0.717648 0.312169 -0.156084
v -0.424598 -0.000000 -0.013398
v -0.717648 0.312169 0.299009
v -0.424598 -0.000000 0.013398
v 0.704994 0.156084 -0.156084
v -0.633572 0.156084 0.279763
v 0.704994 0.156084 0.156084
v -0.633572 0.156084 -0.136838
v 0.074205 -0.000000 -0.047738
v 0.074205 0.312169 0.364954
v 0.074205 -0.000000 0.047738
v 0.074205 0.312169 -0.222029
v 0.074205 0.156084 -0.222029
v 0.074205 0.156084 0.364954
v 0.074205 0.234127 -0.222029
v 0.074205 0.234127 0.364954
v -0.054239 0.327835 0.380972
v -0.939699 0.327835 0.207074
v 0.941447 0.327835 -0.271376
v 0.941447 0.327835 0.271376
v -0.939699 0.327835 -0.335678
v 0.074205 0.327835 -0.386031
v -0.939699 0.340659 0.207074
v -0.054239 0.340659 0.380972
v 0.941447 0.340659 -0.271376
v 0.941447 0.340659 0.271376
v -0.939699 0.340659 -0.335678
v 0.074205 0.340659 -0.386031
v 0.823198 0.327835 0.838894
v 0.136470 0.327835 0.856901
v 0.823198 0.340659 0.838894
v 0.136470 0.340659 0.856901
v 0.336848 0.312169 0.188987
v 0.508744 0.327835 0.328582
v 0.508744 0.340659 0.328582
v 0.495578 0.327835 0.972168
v 0.495578 0.340659 0.972168
v 0.336293 0.312169 -0.189057
v 0.507826 0.327835 -0.328704
v 0.507826 0.340659 -0.328704
v -0.128906 0.327835 0.761160
v -0.826643 0.327835 0.499220
v -0.128906 0.340659 0.761160
v -0.826643 0.340659 0.499220
vn 0.3431 -0.8882 -0.3055
vn 0.4688 -0.7793 -0.4158
vn 0.4010 -0.8637 0.3054
vn 0.4829 -0.8190 0.3099
vn -0.2718 -0.9361 -0.2234
vn -0.3496 -0.8387 -0.4176
vn -0.4818 -0.0486 0.8749
vn -0.3625 -0.9028 0.2315
vn 0.6525 -0.4246 -0.6277
vn -0.5217 -0.6074 0.5991
vn 0.7045 -0.4609 0.5396
vn -0.5572 -0.5716 -0.6023
vn -0.0099 -0.7072 -0.7069
vn 0.0759 -0.4032 0.9120
vn 0.0312 -0.8609 0.5077
vn 0.0024 -0.6987 -0.7154
vn -0.0040 -0.3967 -0.9179
vn 0.0789 -0.4974 0.8640
vn 0.0007 -0.0277 -0.9996
vn 0.0880 0.1328 0.9872
vn -0.0710 0.0253 0.9972
vn -0.7378 -0.6539 0.1678
vn 0.6212 -0.5667 -0.5413
vn 0.8778 -0.4670 0.1063
vn -0.5981 -0.5642 -0.5692
vn 0.0305 -0.6553 -0.7548
vn -0.7315 0.6680 0.1366
vn 0.0144 0.9880 0.1535
vn 0.6101 0.5846 -0.5348
vn 0.7250 0.6847 0.0747
vn -0.5901 0.5800 -0.5616
vn 0.0297 0.6873 -0.7258
vn 0.7681 -0.0000 0.6403
vn -0.6817 -0.0000 0.7316
vn 0.6057 0.6150 0.5049
vn -0.5334 0.6227 0.5724
vn 0.2790 -0.2760 0.9198
vn 0.0213 -0.9920 0.1248
vn -0.0000 1.0000 -0.0000
vn 0.0379 -0.0000 0.9993
vn 0.0292 0.6377 0.7697
vn 0.0785 -0.6395 -0.7648
vn 0.0961 -0.6696 -0.7365
vn 0.0927 0.7071 -0.7010
vn 0.4006 -0.5692 0.7180
vn -0.5488 -0.6256 0.5544
vn 0.4006 0.5692 0.7180
vn -0.5488 0.6256 0.5544
s 1
f 5//5 7//7 22//22 25//25
f 18//18 20//20 14//14 7//7 10//10
f 10//10 7//7 5//5 12//12
f 9//9 1//1 3//3 11//11
f 13//13 6//6 12//12 17//17
f 12//12 5//5 16//16 19//19 17//17
f 11//11 3//3 20//20 18//18
f 7//7 14//14 21//21 22//22
f 2//2 13//13 17//17 9//9
f 4//4 2//2 9//9 11//11
f 15//15 4//4 11//11 18//18
f 15//15 18//18 10//10 8//8
f 43//43 26//26 32//32 44//44
f 26//26 25//25 31//31 32//32
f 3//3 1//1 23//23 24//24
f 16//16 5//5 25//25 26//26
f 37//37 3//3 24//24 38//38
f 42//42 16//16 26//26 43//43
f 28//28 32//32 31//31 27//27
f 24//24 23//23 29//29 30//30
f 24//24 30//30 35//35 33//33
f 25//25 22//22 27//27 31//31
f 27//27 22//22 46//46 48//48
f 40//40 33//33 35//35 41//41
f 39//39 28//28 36//36 41//41
f 28//28 21//21 34//34 36//36
f 30//30 39//39 41//41 35//35
f 34//34 40//40 41//41 36//36
f 14//14 37//37 38//38 21//21
f 1//1 42//42 43//43 23//23
f 23//23 43//43 44//44 29//29
f 9//9 17//17 19//19 1//1
f 1//1 19//19 16//16 42//42
f 14//14 20//20 3//3 37//37
f 39//39 44//44 32//32 28//28
f 30//30 29//29 44//44 39//39
f 8//8 10//10 12//12 6//6
f 46//46 45//45 47//47 48//48
f 28//28 27//27 48//48 47//47
f 22//22 21//21 45//45 46//46
f 21//21 28//28 47//47 45//45
