# Blender 4.3.0
# www.blender.org
o Aircraft_carrier_antenna_2_upg_1
v 0.256818 0.579959 -0.274981
v 0.245189 0.579959 -0.283069
v 0.253277 0.579959 -0.294698
v 0.264906 0.579959 -0.286610
v 0.255362 0.597116 -0.283088
v 0.253296 0.597116 -0.284525
v 0.254733 0.597116 -0.286590
v 0.256799 0.597116 -0.285154
v 0.256818 0.597116 -0.274981
v 0.245189 0.597116 -0.283069
v 0.253277 0.597116 -0.294698
v 0.264906 0.597116 -0.286610
v 0.256799 0.661835 -0.285154
v 0.254733 0.661835 -0.286590
v 0.253296 0.661835 -0.284525
v 0.255362 0.661835 -0.283088
vn 0.1767 -0.0000 0.9843
vn -0.9843 -0.0000 0.1767
vn -0.1768 -0.0000 -0.9843
vn 0.9843 -0.0000 -0.1768
vn 0.0754 0.9045 0.4197
vn -0.4197 0.9045 0.0754
vn -0.0754 0.9045 -0.4197
vn 0.4197 0.9045 -0.0754
vn 0.1443 0.5774 0.8036
vn -0.8036 0.5774 0.1443
vn -0.1443 0.5774 -0.8036
vn 0.8036 0.5774 -0.1443
vn 0.8036 0.5773 -0.1443
vn -0.8036 0.5773 0.1443
s 1
f 1//1 4//4 12//12 9//9
f 3//3 2//2 10//10 11//11
f 4//4 3//3 11//11 12//12
f 2//2 1//1 9//9 10//10
f 5//5 6//6 10//10 9//9
f 6//6 7//7 11//11 10//10
f 7//7 8//8 12//12 11//11
f 8//8 5//5 9//9 12//12
f 8//8 7//7 14//11 13//13
f 6//6 5//5 16//9 15//14
f 16//9 13//13 14//11 15//14
f 7//7 6//6 15//14 14//11
f 5//5 8//8 13//13 16//9
