# Blender 4.3.0
# www.blender.org
o Aircraft_carrier_upg_1
v 0.730368 0.312169 -0.156084
v 0.573007 -0.000000 -0.033559
v 0.730368 0.312169 0.156084
v 0.573007 -0.000000 0.033559
v -0.717648 0.312169 -0.156084
v -0.424598 -0.000000 -0.013398
v -0.717648 0.312169 0.299009
v -0.424598 -0.000000 0.013398
v 0.704994 0.156084 -0.156084
v -0.633572 0.156084 0.279763
v 0.704994 0.156084 0.156084
v -0.633572 0.156084 -0.136838
v 0.074205 -0.000000 -0.047738
v 0.074205 0.312169 0.364954
v 0.074205 -0.000000 0.047738
v 0.074205 0.312169 -0.222029
v 0.074205 0.156084 -0.222029
v 0.074205 0.156084 0.364954
v 0.074205 0.234127 -0.222029
v 0.074205 0.234127 0.364954
v -0.054239 0.327835 0.380972
v -0.939699 0.327835 0.207074
v 0.941447 0.327835 -0.271376
v 0.941447 0.327835 0.271376
v -0.939699 0.327835 -0.335678
v 0.074205 0.327835 -0.386031
v -0.939699 0.340659 0.207074
v -0.054239 0.340659 0.380972
v 0.941447 0.340659 -0.271376
v 0.941447 0.340659 0.271376
v -0.939699 0.340659 -0.335678
v 0.074205 0.340659 -0.386031
v 0.823198 0.327835 0.838894
v 0.136470 0.327835 0.856901
v 0.823198 0.340659 0.838894
v 0.136470 0.340659 0.856901
v 0.336848 0.312169 0.188987
v 0.508744 0.327835 0.328582
v 0.508744 0.340659 0.328582
v 0.495578 0.327835 0.972168
v 0.495578 0.340659 0.972168
v 0.336293 0.312169 -0.189057
v 0.507826 0.327835 -0.328704
v 0.507826 0.340659 -0.328704
v -0.001328 0.333862 -0.179381
v -0.001328 0.460117 -0.179381
v -0.027385 0.333862 -0.324482
v -0.027385 0.460117 -0.324482
v 0.143772 0.333862 -0.205438
v 0.143772 0.460117 -0.205438
v 0.117716 0.333862 -0.350539
v 0.117716 0.460117 -0.350539
v -0.017130 0.467553 -0.156662
v -0.050104 0.467553 -0.340284
v 0.133517 0.467553 -0.373258
v 0.166491 0.467553 -0.189637
v 0.045655 0.579959 -0.246933
v 0.040166 0.579959 -0.277499
v 0.070732 0.579959 -0.282988
v 0.076221 0.579959 -0.252422
v -0.017130 0.548060 -0.156662
v -0.017130 0.555655 -0.156662
v 0.166491 0.548060 -0.189637
v 0.166491 0.555655 -0.189637
v 0.166491 0.519958 -0.189637
v 0.166491 0.527554 -0.189637
v 0.166491 0.491857 -0.189637
v 0.166491 0.499452 -0.189637
v -0.017130 0.519958 -0.156662
v -0.017130 0.527554 -0.156662
v -0.017130 0.491857 -0.156662
v -0.017130 0.499452 -0.156662
v -0.050104 0.499452 -0.340284
v -0.050104 0.491857 -0.340284
v -0.050104 0.527554 -0.340284
v -0.050104 0.519958 -0.340284
v -0.050104 0.555655 -0.340284
v -0.050104 0.548060 -0.340284
v 0.133517 0.548060 -0.373258
v 0.133517 0.555655 -0.373258
v 0.133517 0.519958 -0.373258
v 0.133517 0.527554 -0.373258
v 0.133517 0.491857 -0.373258
v 0.133517 0.499452 -0.373258
v -0.012144 0.491857 -0.163831
v -0.012144 0.499452 -0.163831
v -0.042936 0.499452 -0.335298
v -0.042936 0.491857 -0.335298
v -0.012144 0.519958 -0.163831
v -0.012144 0.527554 -0.163831
v -0.042936 0.527554 -0.335298
v -0.042936 0.519958 -0.335298
v -0.012144 0.548060 -0.163831
v -0.012144 0.555655 -0.163831
v -0.042936 0.555655 -0.335298
v -0.042936 0.548060 -0.335298
v 0.159323 0.491857 -0.194622
v 0.159323 0.499452 -0.194622
v 0.159323 0.519958 -0.194622
v 0.159323 0.527554 -0.194622
v 0.159323 0.548060 -0.194622
v 0.159323 0.555655 -0.194622
v 0.128531 0.491857 -0.366089
v 0.128531 0.499452 -0.366089
v 0.128531 0.519958 -0.366089
v 0.128531 0.527554 -0.366089
v 0.128531 0.548060 -0.366089
v 0.128531 0.555655 -0.366089
v -0.024709 0.579959 -0.145766
v -0.061000 0.579959 -0.347862
v 0.141096 0.579959 -0.384154
v 0.177387 0.579959 -0.182058
v 0.055966 0.597116 -0.261758
v 0.054991 0.597116 -0.267187
v 0.060421 0.597116 -0.268162
v 0.061396 0.597116 -0.262733
v 0.045655 0.597116 -0.246933
v 0.040166 0.597116 -0.277499
v 0.070732 0.597116 -0.282988
v 0.076221 0.597116 -0.252422
v 0.055966 0.823747 -0.261758
v 0.054991 0.823747 -0.267187
v 0.060421 0.823747 -0.268162
v 0.061396 0.823747 -0.262733
v 0.060421 0.697926 -0.268162
v 0.061396 0.697926 -0.262733
v 0.055966 0.697926 -0.261758
v 0.054991 0.697926 -0.267187
v 0.060421 0.708410 -0.268162
v 0.055966 0.708410 -0.261758
v 0.061396 0.708410 -0.262733
v 0.054991 0.708410 -0.267187
v 0.069732 0.708410 -0.216311
v 0.069732 0.697926 -0.216311
v 0.046655 0.708410 -0.313609
v 0.046655 0.697926 -0.313609
v 0.052085 0.697926 -0.314584
v 0.064303 0.697926 -0.215336
v 0.052085 0.708410 -0.314584
v 0.064303 0.708410 -0.215336
v 0.060421 0.768700 -0.268162
v 0.055966 0.768700 -0.261758
v 0.061396 0.768700 -0.262733
v 0.054991 0.768700 -0.267187
v 0.060421 0.772409 -0.268162
v 0.055966 0.772409 -0.261758
v 0.061396 0.772409 -0.262733
v 0.054991 0.772409 -0.267187
v 0.074606 0.772409 -0.189172
v 0.074606 0.768700 -0.189172
v 0.041781 0.772409 -0.340748
v 0.041781 0.768700 -0.340748
v 0.047211 0.768700 -0.341723
v 0.069176 0.768700 -0.188197
v 0.047211 0.772409 -0.341723
v 0.069176 0.772409 -0.188197
v 0.061396 0.744950 -0.262733
v 0.061396 0.737404 -0.262733
v 0.054991 0.744950 -0.267187
v 0.054991 0.737404 -0.267187
v 0.060421 0.737404 -0.268162
v 0.060421 0.744950 -0.268162
v 0.055966 0.737404 -0.261758
v 0.055966 0.744950 -0.261758
v 0.067542 0.744950 -0.258458
v 0.067542 0.737404 -0.258458
v 0.048845 0.744950 -0.271462
v 0.048845 0.737404 -0.271462
v 0.064696 0.737404 -0.274309
v 0.064696 0.744950 -0.274309
v 0.051691 0.737404 -0.255612
v 0.051691 0.744950 -0.255612
v -0.128906 0.327835 0.761160
v -0.826643 0.327835 0.499220
v -0.128906 0.340659 0.761160
v -0.826643 0.340659 0.499220
v 0.263452 0.333862 -0.238039
v 0.263452 0.460117 -0.238039
v 0.208247 0.333862 -0.276435
v 0.208247 0.460117 -0.276435
v 0.301848 0.333862 -0.293244
v 0.301848 0.460117 -0.293244
v 0.246643 0.333862 -0.331640
v 0.246643 0.460117 -0.331640
v 0.265683 0.467553 -0.225614
v 0.195823 0.467553 -0.274204
v 0.244412 0.467553 -0.344064
v 0.314273 0.467553 -0.295475
v 0.256818 0.579959 -0.274981
v 0.245189 0.579959 -0.283069
v 0.253277 0.579959 -0.294698
v 0.264906 0.579959 -0.286610
v 0.265683 0.548060 -0.225614
v 0.265683 0.555655 -0.225614
v 0.314273 0.548060 -0.295475
v 0.314273 0.555655 -0.295475
v 0.314273 0.519958 -0.295475
v 0.314273 0.527554 -0.295475
v 0.314273 0.491857 -0.295475
v 0.314273 0.499452 -0.295475
v 0.265683 0.519958 -0.225614
v 0.265683 0.527554 -0.225614
v 0.265683 0.491857 -0.225614
v 0.265683 0.499452 -0.225614
v 0.195823 0.499452 -0.274204
v 0.195823 0.491857 -0.274204
v 0.195823 0.527554 -0.274204
v 0.195823 0.519958 -0.274204
v 0.195823 0.555655 -0.274204
v 0.195823 0.548060 -0.274204
v 0.244412 0.548060 -0.344064
v 0.244412 0.555655 -0.344064
v 0.244412 0.519958 -0.344064
v 0.244412 0.527554 -0.344064
v 0.244412 0.491857 -0.344064
v 0.244412 0.499452 -0.344064
v 0.264979 0.491857 -0.229535
v 0.264979 0.499452 -0.229535
v 0.199743 0.499452 -0.274908
v 0.199743 0.491857 -0.274908
v 0.264979 0.519958 -0.229535
v 0.264979 0.527554 -0.229535
v 0.199743 0.527554 -0.274908
v 0.199743 0.519958 -0.274908
v 0.264979 0.548060 -0.229535
v 0.264979 0.555655 -0.229535
v 0.199743 0.555655 -0.274908
v 0.199743 0.548060 -0.274908
v 0.310352 0.491857 -0.294771
v 0.310352 0.499452 -0.294771
v 0.310352 0.519958 -0.294771
v 0.310352 0.527554 -0.294771
v 0.310352 0.548060 -0.294771
v 0.310352 0.555655 -0.294771
v 0.245116 0.491857 -0.340144
v 0.245116 0.499452 -0.340144
v 0.245116 0.519958 -0.340144
v 0.245116 0.527554 -0.340144
v 0.245116 0.548060 -0.340144
v 0.245116 0.555655 -0.340144
v 0.266753 0.579959 -0.219656
v 0.189864 0.579959 -0.273134
v 0.243342 0.579959 -0.350023
v 0.320231 0.579959 -0.296545
v 0.255362 0.597116 -0.283088
v 0.253296 0.597116 -0.284525
v 0.254733 0.597116 -0.286590
v 0.256799 0.597116 -0.285154
v 0.256818 0.597116 -0.274981
v 0.245189 0.597116 -0.283069
v 0.253277 0.597116 -0.294698
v 0.264906 0.597116 -0.286610
v 0.256799 0.661835 -0.285154
v 0.254733 0.661835 -0.286590
v 0.253296 0.661835 -0.284525
v 0.255362 0.661835 -0.283088
vn 0.3431 -0.8882 -0.3055
vn 0.4688 -0.7793 -0.4158
vn 0.4010 -0.8637 0.3054
vn 0.4829 -0.8190 0.3099
vn -0.2718 -0.9361 -0.2234
vn -0.3496 -0.8387 -0.4176
vn -0.4818 -0.0486 0.8749
vn -0.3625 -0.9028 0.2315
vn 0.6525 -0.4246 -0.6277
vn -0.5217 -0.6074 0.5991
vn 0.7045 -0.4609 0.5396
vn -0.5572 -0.5716 -0.6023
vn -0.0099 -0.7072 -0.7069
vn 0.0759 -0.4032 0.9120
vn 0.0312 -0.8609 0.5077
vn 0.0024 -0.6987 -0.7154
vn -0.0040 -0.3967 -0.9179
vn 0.0789 -0.4974 0.8640
vn 0.0007 -0.0277 -0.9996
vn 0.0880 0.1328 0.9872
vn -0.0710 0.0253 0.9972
vn -0.7378 -0.6539 0.1678
vn 0.6212 -0.5667 -0.5413
vn 0.8778 -0.4670 0.1063
vn -0.5981 -0.5642 -0.5692
vn 0.0305 -0.6553 -0.7548
vn -0.7315 0.6680 0.1366
vn 0.0144 0.9880 0.1535
vn 0.6101 0.5846 -0.5348
vn 0.7250 0.6847 0.0747
vn -0.5901 0.5800 -0.5616
vn 0.0297 0.6873 -0.7258
vn 0.7681 -0.0000 0.6403
vn -0.6817 -0.0000 0.7316
vn 0.6057 0.6150 0.5049
vn -0.5334 0.6227 0.5724
vn 0.2790 -0.2760 0.9198
vn 0.0213 -0.9920 0.1248
vn -0.0000 1.0000 -0.0000
vn 0.0379 -0.0000 0.9993
vn 0.0292 0.6377 0.7697
vn 0.0785 -0.6395 -0.7648
vn 0.0961 -0.6696 -0.7365
vn 0.0927 0.7071 -0.7010
vn -0.5710 -0.0000 0.8210
vn -0.3513 -0.7884 0.5050
vn -0.8210 -0.0000 -0.5710
vn -0.5050 -0.7884 -0.3513
vn 0.8210 -0.0000 0.5710
vn 0.5050 -0.7884 0.3513
vn 0.5710 -0.0000 -0.8210
vn 0.3513 -0.7884 -0.5050
vn -0.4936 -0.5028 0.7096
vn -0.7096 -0.5028 -0.4936
vn 0.4936 -0.5028 -0.7096
vn 0.7096 -0.5028 0.4936
vn -0.2435 0.9045 0.3501
vn -0.3501 0.9045 -0.2435
vn 0.2435 0.9045 -0.3501
vn 0.3501 0.9045 0.2435
vn -0.4662 0.5774 0.6703
vn -0.3715 -0.7595 0.5341
vn 0.6703 0.5774 0.4662
vn 0.5341 -0.7595 0.3715
vn 0.6703 -0.5774 0.4662
vn -0.4662 -0.5774 0.6703
vn -0.6703 -0.5774 -0.4662
vn -0.6703 0.5774 -0.4662
vn -0.5341 -0.7595 -0.3715
vn 0.4662 0.5774 -0.6703
vn 0.3715 -0.7595 -0.5341
vn 0.4662 -0.5774 -0.6703
vn -0.2435 -0.9045 0.3501
vn -0.3501 -0.9045 -0.2435
vn 0.3501 -0.9045 0.2435
vn 0.2435 -0.9045 -0.3501
vn -0.5253 0.3919 0.7553
vn -0.7553 0.3919 -0.5253
vn 0.5253 0.3919 -0.7553
vn 0.7553 0.3919 0.5253
vn -0.4662 0.5773 0.6703
vn -0.6703 0.5773 -0.4662
vn 0.8370 -0.3015 -0.4566
vn 0.9436 -0.3015 0.1369
vn -0.8370 -0.3015 0.4566
vn -0.9436 -0.3015 -0.1369
vn 0.8370 0.3015 -0.4566
vn -0.8370 0.3015 0.4566
vn 0.9436 0.3015 0.1369
vn -0.9436 0.3015 -0.1369
vn 0.6703 0.5773 0.4662
vn -0.6703 -0.5773 -0.4662
vn -0.4662 -0.5773 0.6703
vn 0.6703 -0.5773 0.4662
vn 0.4006 -0.5692 0.7180
vn -0.5488 -0.6256 0.5544
vn 0.4006 0.5692 0.7180
vn -0.5488 0.6256 0.5544
vn 0.1767 -0.0000 0.9843
vn 0.1375 -0.6282 0.7658
vn -0.9843 -0.0000 0.1767
vn -0.7658 -0.6282 0.1375
vn 0.9843 -0.0000 -0.1768
vn 0.7658 -0.6282 -0.1375
vn -0.1768 -0.0000 -0.9843
vn -0.1375 -0.6282 -0.7658
vn 0.1605 -0.4189 0.8937
vn -0.8937 -0.4189 0.1605
vn -0.1605 -0.4189 -0.8937
vn 0.8937 -0.4189 -0.1605
vn 0.0754 0.9045 0.4197
vn -0.4197 0.9045 0.0754
vn -0.0754 0.9045 -0.4197
vn 0.4197 0.9045 -0.0754
vn 0.1443 0.5774 0.8036
vn 0.1316 -0.6675 0.7329
vn 0.8036 0.5774 -0.1443
vn 0.7329 -0.6675 -0.1316
vn 0.8036 -0.5774 -0.1443
vn 0.1443 -0.5774 0.8036
vn -0.8036 -0.5774 0.1443
vn -0.8036 0.5774 0.1443
vn -0.7329 -0.6675 0.1316
vn -0.1443 0.5774 -0.8036
vn -0.1316 -0.6675 -0.7329
vn -0.1443 -0.5774 -0.8036
vn 0.0754 -0.9045 0.4197
vn -0.4197 -0.9045 0.0754
vn 0.4197 -0.9045 -0.0754
vn -0.0754 -0.9045 -0.4197
vn 0.1544 0.4867 0.8598
vn -0.8598 0.4867 0.1544
vn -0.1544 0.4867 -0.8598
vn 0.8598 0.4867 -0.1544
vn 0.8036 0.5773 -0.1443
vn -0.8036 0.5773 0.1443
s 1
f 5//5 7//7 22//22 25//25
f 18//18 20//20 14//14 7//7 10//10
f 10//10 7//7 5//5 12//12
f 9//9 1//1 3//3 11//11
f 13//13 6//6 12//12 17//17
f 12//12 5//5 16//16 19//19 17//17
f 11//11 3//3 20//20 18//18
f 7//7 14//14 21//21 22//22
f 2//2 13//13 17//17 9//9
f 4//4 2//2 9//9 11//11
f 15//15 4//4 11//11 18//18
f 15//15 18//18 10//10 8//8
f 43//43 26//26 32//32 44//44
f 26//26 25//25 31//31 32//32
f 3//3 1//1 23//23 24//24
f 16//16 5//5 25//25 26//26
f 37//37 3//3 24//24 38//38
f 42//42 16//16 26//26 43//43
f 28//28 32//32 31//31 27//27
f 24//24 23//23 29//29 30//30
f 24//24 30//30 35//35 33//33
f 25//25 22//22 27//27 31//31
f 27//27 22//22 174//96 176//98
f 40//40 33//33 35//35 41//41
f 39//39 28//28 36//36 41//41
f 28//28 21//21 34//34 36//36
f 30//30 39//39 41//41 35//35
f 34//34 40//40 41//41 36//36
f 14//14 37//37 38//38 21//21
f 1//1 42//42 43//43 23//23
f 23//23 43//43 44//44 29//29
f 9//9 17//17 19//19 1//1
f 1//1 19//19 16//16 42//42
f 14//14 20//20 3//3 37//37
f 39//39 44//44 32//32 28//28
f 30//30 29//29 44//44 39//39
f 45//45 46//46 48//48 47//47
f 47//47 48//48 52//52 51//51
f 51//51 52//52 50//50 49//49
f 49//49 50//50 46//46 45//45
f 50//50 52//52 55//55 56//56
f 48//48 46//46 53//53 54//54
f 46//46 50//50 56//56 53//53
f 52//52 48//48 54//54 55//55
f 53//53 71//61 74//68 54//54
f 73//67 76//68 81//70 84//72
f 84//72 81//70 65//63 68//65
f 82//72 79//70 63//63 66//65
f 57//57 60//60 120//63 117//61
f 72//66 69//61 76//68 73//67
f 64//64 112//80 109//77 62//62
f 55//55 83//70 67//63 56//56
f 70//66 61//61 78//68 75//67
f 62//62 109//77 110//78 77//69
f 56//56 67//63 71//61 53//53
f 68//65 65//63 69//61 72//66
f 80//71 111//79 112//80 64//64
f 75//67 78//68 79//70 82//72
f 54//54 74//68 83//70 55//55
f 77//69 110//78 111//79 80//71
f 67//63 83//70 103//59 97//60
f 73//67 84//72 104//76 87//74
f 84//72 68//65 98//75 104//76
f 76//68 69//61 89//57 92//58
f 63//63 79//70 107//59 101//60
f 71//61 67//63 97//60 85//57
f 80//71 64//64 102//75 108//76
f 68//65 72//66 86//73 98//75
f 79//70 78//68 96//58 107//59
f 61//61 63//63 101//60 93//57
f 70//66 75//67 91//74 90//73
f 77//69 80//71 108//76 95//74
f 66//65 63//63 61//61 70//66
f 86//73 87//74 88//58 85//57
f 90//73 91//74 92//58 89//57
f 94//73 95//74 96//58 93//57
f 98//75 86//73 85//57 97//60
f 100//75 90//73 89//57 99//60
f 102//75 94//73 93//57 101//60
f 104//76 98//75 97//60 103//59
f 106//76 100//75 99//60 105//59
f 108//76 102//75 101//60 107//59
f 87//74 104//76 103//59 88//58
f 91//74 106//76 105//59 92//58
f 95//74 108//76 107//59 96//58
f 72//66 73//67 87//74 86//73
f 66//65 70//66 90//73 100//75
f 83//70 74//68 88//58 103//59
f 62//62 77//69 95//74 94//73
f 69//61 65//63 99//60 89//57
f 75//67 82//72 106//76 91//74
f 82//72 66//65 100//75 106//76
f 74//68 71//61 85//57 88//58
f 81//70 76//68 92//58 105//59
f 78//68 61//61 93//57 96//58
f 65//63 81//70 105//59 99//60
f 64//64 62//62 94//73 102//75
f 8//8 10//10 12//12 6//6
f 57//57 58//58 110//78 109//77
f 58//58 59//59 111//79 110//78
f 59//59 60//60 112//80 111//79
f 60//60 57//57 109//77 112//80
f 147//89 145//87 123//70 124//63
f 59//59 58//58 118//68 119//70
f 60//60 59//59 119//70 120//63
f 58//58 57//57 117//61 118//68
f 113//57 114//58 118//68 117//61
f 114//58 115//59 119//70 118//68
f 115//59 116//60 120//63 119//70
f 116//60 113//57 117//61 120//63
f 123//70 122//82 121//81 124//63
f 148//90 146//88 121//81 122//82
f 146//88 147//89 124//63 121//81
f 145//87 148//90 122//82 123//70
f 115//59 114//58 128//86 125//83
f 113//57 116//60 126//84 127//85
f 114//58 113//57 127//85 128//86
f 116//60 115//59 125//83 126//84
f 132//90 129//87 139//70 135//68
f 128//86 132//90 135//68 136//92
f 128//86 127//85 130//88 132//90
f 126//84 125//83 129//87 131//89
f 137//72 136//92 135//68 139//70
f 138//93 134//65 133//91 140//61
f 126//84 131//89 133//91 134//65
f 129//87 125//83 137//72 139//70
f 125//83 128//86 136//92 137//72
f 131//89 130//88 140//61 133//91
f 130//88 127//85 138//93 140//61
f 127//85 126//84 134//65 138//93
f 162//59 159//58 144//86 141//83
f 164//57 157//60 143//84 142//85
f 159//58 164//57 142//85 144//86
f 157//60 162//59 141//83 143//84
f 143//84 147//89 149//63 150//94
f 147//89 146//88 156//61 149//63
f 144//86 142//85 146//88 148//90
f 143//84 141//83 145//87 147//89
f 153//72 152//92 151//82 155//70
f 154//66 150//94 149//63 156//61
f 146//88 142//85 154//66 156//61
f 142//85 143//84 150//94 154//66
f 144//86 148//90 151//82 152//92
f 148//90 145//87 155//70 151//82
f 145//87 141//83 153//72 155//70
f 141//83 144//86 152//92 153//72
f 131//89 129//87 161//76 158//75
f 164//57 159//58 167//68 172//61
f 132//90 130//88 163//73 160//74
f 157//60 164//57 172//61 165//63
f 130//88 131//89 158//75 163//73
f 159//58 162//59 170//70 167//68
f 129//87 132//90 160//74 161//76
f 158//75 161//76 169//72 166//65
f 166//65 169//72 170//70 165//63
f 168//67 171//66 172//61 167//68
f 171//66 166//65 165//63 172//61
f 169//72 168//67 167//68 170//70
f 162//59 157//60 165//63 170//70
f 161//76 160//74 168//67 169//72
f 163//73 158//75 166//65 171//66
f 160//74 163//73 171//66 168//67
f 174//96 173//95 175//97 176//98
f 28//28 27//27 176//98 175//97
f 22//22 21//21 173//95 174//96
f 21//21 28//28 175//97 173//95
f 177//99 178//100 180//102 179//101
f 179//101 180//102 184//106 183//105
f 183//105 184//106 182//104 181//103
f 181//103 182//104 178//100 177//99
f 182//104 184//106 187//109 188//110
f 180//102 178//100 185//107 186//108
f 178//100 182//104 188//110 185//107
f 184//106 180//102 186//108 187//109
f 185//107 203//115 206//122 186//108
f 205//121 208//122 213//124 216//126
f 216//126 213//124 197//117 200//119
f 214//126 211//124 195//117 198//119
f 189//111 192//114 252//117 249//115
f 204//120 201//115 208//122 205//121
f 196//118 244//134 241//131 194//116
f 187//109 215//124 199//117 188//110
f 202//120 193//115 210//122 207//121
f 194//116 241//131 242//132 209//123
f 188//110 199//117 203//115 185//107
f 200//119 197//117 201//115 204//120
f 212//125 243//133 244//134 196//118
f 207//121 210//122 211//124 214//126
f 186//108 206//122 215//124 187//109
f 209//123 242//132 243//133 212//125
f 199//117 215//124 235//113 229//114
f 205//121 216//126 236//130 219//128
f 216//126 200//119 230//129 236//130
f 208//122 201//115 221//111 224//112
f 195//117 211//124 239//113 233//114
f 203//115 199//117 229//114 217//111
f 212//125 196//118 234//129 240//130
f 200//119 204//120 218//127 230//129
f 211//124 210//122 228//112 239//113
f 193//115 195//117 233//114 225//111
f 202//120 207//121 223//128 222//127
f 209//123 212//125 240//130 227//128
f 198//119 195//117 193//115 202//120
f 218//127 219//128 220//112 217//111
f 222//127 223//128 224//112 221//111
f 226//127 227//128 228//112 225//111
f 230//129 218//127 217//111 229//114
f 232//129 222//127 221//111 231//114
f 234//129 226//127 225//111 233//114
f 236//130 230//129 229//114 235//113
f 238//130 232//129 231//114 237//113
f 240//130 234//129 233//114 239//113
f 219//128 236//130 235//113 220//112
f 223//128 238//130 237//113 224//112
f 227//128 240//130 239//113 228//112
f 204//120 205//121 219//128 218//127
f 198//119 202//120 222//127 232//129
f 215//124 206//122 220//112 235//113
f 194//116 209//123 227//128 226//127
f 201//115 197//117 231//114 221//111
f 207//121 214//126 238//130 223//128
f 214//126 198//119 232//129 238//130
f 206//122 203//115 217//111 220//112
f 213//124 208//122 224//112 237//113
f 210//122 193//115 225//111 228//112
f 197//117 213//124 237//113 231//114
f 196//118 194//116 226//127 234//129
f 189//111 190//112 242//132 241//131
f 190//112 191//113 243//133 242//132
f 191//113 192//114 244//134 243//133
f 192//114 189//111 241//131 244//134
f 191//113 190//112 250//122 251//124
f 192//114 191//113 251//124 252//117
f 190//112 189//111 249//115 250//122
f 245//111 246//112 250//122 249//115
f 246//112 247//113 251//124 250//122
f 247//113 248//114 252//117 251//124
f 248//114 245//111 249//115 252//117
f 248//114 247//113 254//124 253//135
f 246//112 245//111 256//115 255//136
f 256//115 253//135 254//124 255//136
f 247//113 246//112 255//136 254//124
f 245//111 248//114 253//135 256//115
