# Blender 4.3.0
# www.blender.org
o Aircraft_carrier_bridge_2_upg_1
v 0.263452 0.333862 -0.238039
v 0.263452 0.460117 -0.238039
v 0.208247 0.333862 -0.276435
v 0.208247 0.460117 -0.276435
v 0.301848 0.333862 -0.293244
v 0.301848 0.460117 -0.293244
v 0.246643 0.333862 -0.331640
v 0.246643 0.460117 -0.331640
v 0.265683 0.467553 -0.225614
v 0.195823 0.467553 -0.274204
v 0.244412 0.467553 -0.344064
v 0.314273 0.467553 -0.295475
v 0.256818 0.579959 -0.274981
v 0.245189 0.579959 -0.283069
v 0.253277 0.579959 -0.294698
v 0.264906 0.579959 -0.286610
v 0.265683 0.548060 -0.225614
v 0.265683 0.555655 -0.225614
v 0.314273 0.548060 -0.295475
v 0.314273 0.555655 -0.295475
v 0.314273 0.519958 -0.295475
v 0.314273 0.527554 -0.295475
v 0.314273 0.491857 -0.295475
v 0.314273 0.499452 -0.295475
v 0.265683 0.519958 -0.225614
v 0.265683 0.527554 -0.225614
v 0.265683 0.491857 -0.225614
v 0.265683 0.499452 -0.225614
v 0.195823 0.499452 -0.274204
v 0.195823 0.491857 -0.274204
v 0.195823 0.527554 -0.274204
v 0.195823 0.519958 -0.274204
v 0.195823 0.555655 -0.274204
v 0.195823 0.548060 -0.274204
v 0.244412 0.548060 -0.344064
v 0.244412 0.555655 -0.344064
v 0.244412 0.519958 -0.344064
v 0.244412 0.527554 -0.344064
v 0.244412 0.491857 -0.344064
v 0.244412 0.499452 -0.344064
v 0.264979 0.499452 -0.229535
v 0.199743 0.499452 -0.274908
v 0.264979 0.527554 -0.229535
v 0.199743 0.527554 -0.274908
v 0.264979 0.555655 -0.229535
v 0.199743 0.555655 -0.274908
v 0.310352 0.499452 -0.294771
v 0.310352 0.527554 -0.294771
v 0.310352 0.555655 -0.294771
v 0.245116 0.499452 -0.340144
v 0.245116 0.527554 -0.340144
v 0.245116 0.555655 -0.340144
v 0.266753 0.579959 -0.219656
v 0.189864 0.579959 -0.273134
v 0.243342 0.579959 -0.350023
v 0.320231 0.579959 -0.296545
vn 0.1767 -0.0000 0.9843
vn 0.1375 -0.6282 0.7658
vn -0.9843 -0.0000 0.1767
vn -0.7658 -0.6282 0.1375
vn 0.9843 -0.0000 -0.1768
vn 0.7658 -0.6282 -0.1375
vn -0.1768 -0.0000 -0.9843
vn -0.1375 -0.6282 -0.7658
vn 0.1605 -0.4189 0.8937
vn -0.8937 -0.4189 0.1605
vn -0.1605 -0.4189 -0.8937
vn 0.8937 -0.4189 -0.1605
vn -0.0000 1.0000 -0.0000
vn 0.1725 0.2173 0.9607
vn 0.1316 -0.6675 0.7329
vn 0.9607 0.2173 -0.1725
vn 0.7329 -0.6675 -0.1316
vn 0.8036 -0.5774 -0.1443
vn 0.1443 -0.5774 0.8036
vn -0.8036 -0.5774 0.1443
vn -0.9607 0.2173 0.1725
vn -0.7329 -0.6675 0.1316
vn -0.1725 0.2173 -0.9607
vn -0.1316 -0.6675 -0.7329
vn -0.1443 -0.5774 -0.8036
vn 0.1057 -0.8016 0.5885
vn -0.5885 -0.8016 0.1057
vn 0.5885 -0.8016 -0.1057
vn -0.1057 -0.8016 -0.5885
vn 0.1544 0.4867 0.8598
vn -0.8598 0.4867 0.1544
vn -0.1544 0.4867 -0.8598
vn 0.8598 0.4867 -0.1544
s 1
f 1//1 2//2 4//4 3//3
f 3//3 4//4 8//8 7//7
f 7//7 8//8 6//6 5//5
f 5//5 6//6 2//2 1//1
f 6//6 8//8 11//11 12//12
f 4//4 2//2 9//9 10//10
f 2//2 6//6 12//12 9//9
f 8//8 4//4 10//10 11//11
f 9//9 27//14 30//21 10//10
f 29//20 32//21 37//23 40//25
f 40//25 37//23 21//16 24//18
f 38//25 35//23 19//16 22//18
f 28//19 25//14 32//21 29//20
f 20//17 56//33 53//30 18//15
f 11//11 39//23 23//16 12//12
f 26//19 17//14 34//21 31//20
f 18//15 53//30 54//31 33//22
f 12//12 23//16 27//14 9//9
f 24//18 21//16 25//14 28//19
f 36//24 55//32 56//33 20//17
f 31//20 34//21 35//23 38//25
f 10//10 30//21 39//23 11//11
f 33//22 54//31 55//32 36//24
f 21//16 37//23 51//29 48//28
f 29//20 40//25 50//29 42//27
f 40//25 24//18 47//28 50//29
f 34//21 17//14 45//26 46//27
f 39//23 30//21 42//27 50//29
f 25//14 21//16 48//28 43//26
f 36//24 20//17 49//28 52//29
f 24//18 28//19 41//26 47//28
f 50//29 47//28 23//16 39//23
f 26//19 31//20 44//27 43//26
f 33//22 36//24 52//29 46//27
f 22//18 19//16 17//14 26//19
f 43//26 44//27 32//21 25//14
f 47//28 41//26 27//14 23//16
f 49//28 45//26 17//14 19//16
f 52//29 49//28 19//16 35//23
f 37//23 32//21 44//27 51//29
f 46//27 52//29 35//23 34//21
f 28//19 29//20 42//27 41//26
f 22//18 26//19 43//26 48//28
f 18//15 33//22 46//27 45//26
f 31//20 38//25 51//29 44//27
f 38//25 22//18 48//28 51//29
f 20//17 18//15 45//26 49//28
f 13//13 14//13 54//31 53//30
f 14//13 15//13 55//32 54//31
f 15//13 16//13 56//33 55//32
f 16//13 13//13 53//30 56//33
f 30//21 27//14 41//26 42//27
