# Blender 4.3.2
# www.blender.org
o Aircraft_carrier_bridge
v -0.001328 0.300659 -0.179381
v -0.001328 0.426914 -0.179381
v -0.027385 0.300659 -0.324482
v -0.027385 0.426914 -0.324482
v 0.143772 0.300659 -0.205438
v 0.143772 0.426914 -0.205438
v 0.117716 0.300659 -0.350539
v 0.117716 0.426914 -0.350539
v -0.017130 0.434350 -0.156662
v -0.050104 0.434350 -0.340284
v 0.133517 0.434350 -0.373258
v 0.166491 0.434350 -0.189637
v -0.017130 0.514857 -0.156662
v -0.017130 0.522452 -0.156662
v 0.166491 0.514857 -0.189637
v 0.166491 0.522452 -0.189637
v 0.166491 0.486755 -0.189637
v 0.166491 0.494351 -0.189637
v 0.166491 0.458654 -0.189637
v 0.166491 0.466249 -0.189637
v -0.017130 0.486755 -0.156662
v -0.017130 0.494351 -0.156662
v -0.017130 0.458654 -0.156662
v -0.017130 0.466249 -0.156662
v -0.050104 0.466249 -0.340284
v -0.050104 0.458654 -0.340284
v -0.050104 0.494351 -0.340284
v -0.050104 0.486755 -0.340284
v -0.050104 0.522452 -0.340284
v -0.050104 0.514857 -0.340284
v 0.133517 0.514857 -0.373258
v 0.133517 0.522452 -0.373258
v 0.133517 0.486755 -0.373258
v 0.133517 0.494351 -0.373258
v 0.133517 0.458654 -0.373258
v 0.133517 0.466249 -0.373258
v -0.012144 0.466249 -0.163831
v -0.042936 0.466249 -0.335298
v -0.012144 0.494351 -0.163831
v -0.042936 0.494351 -0.335298
v -0.012144 0.522452 -0.163831
v -0.042936 0.522452 -0.335298
v 0.159323 0.466249 -0.194622
v 0.159323 0.494351 -0.194622
v 0.159323 0.522452 -0.194622
v 0.128531 0.466249 -0.366089
v 0.128531 0.494351 -0.366089
v 0.128531 0.522452 -0.366089
v -0.024709 0.546756 -0.145766
v -0.061000 0.546756 -0.347862
v 0.141096 0.546756 -0.384154
v 0.177387 0.546756 -0.182058
v 0.055966 0.563913 -0.261758
v 0.054991 0.563913 -0.267187
v 0.060421 0.563913 -0.268162
v 0.061396 0.563913 -0.262733
v 0.045655 0.563913 -0.246933
v 0.040166 0.563913 -0.277499
v 0.070732 0.563913 -0.282988
v 0.076221 0.563913 -0.252422
vn -0.5710 -0.0000 0.8210
vn -0.3513 -0.7884 0.5050
vn -0.8210 -0.0000 -0.5710
vn -0.5050 -0.7884 -0.3513
vn 0.8210 -0.0000 0.5710
vn 0.5050 -0.7884 0.3513
vn 0.5710 -0.0000 -0.8210
vn 0.3513 -0.7884 -0.5050
vn -0.4936 -0.5028 0.7096
vn -0.7096 -0.5028 -0.4936
vn 0.4936 -0.5028 -0.7096
vn 0.7096 -0.5028 0.4936
vn -0.5334 0.3570 0.7669
vn -0.3715 -0.7595 0.5341
vn 0.7669 0.3570 0.5334
vn 0.5341 -0.7595 0.3715
vn 0.6703 -0.5774 0.4662
vn -0.4662 -0.5774 0.6703
vn -0.6703 -0.5774 -0.4662
vn -0.7669 0.3570 -0.5334
vn -0.5341 -0.7595 -0.3715
vn 0.5334 0.3570 -0.7669
vn 0.3715 -0.7595 -0.5341
vn 0.4662 -0.5774 -0.6703
vn -0.4323 -0.6534 0.6215
vn -0.6215 -0.6534 -0.4323
vn 0.6215 -0.6534 0.4323
vn 0.4323 -0.6534 -0.6215
vn -0.5356 0.3466 0.7701
vn -0.7701 0.3466 -0.5356
vn 0.5356 0.3466 -0.7701
vn 0.7701 0.3466 0.5356
vn -0.0000 1.0000 -0.0000
vn -0.0590 0.9947 0.0848
vn -0.0848 0.9947 -0.0590
vn 0.0590 0.9947 -0.0848
vn 0.0848 0.9947 0.0590
s 1
f 1//1 2//2 4//4 3//3
f 3//3 4//4 8//8 7//7
f 7//7 8//8 6//6 5//5
f 5//5 6//6 2//2 1//1
f 6//6 8//8 11//11 12//12
f 4//4 2//2 9//9 10//10
f 2//2 6//6 12//12 9//9
f 8//8 4//4 10//10 11//11
f 9//9 23//13 26//20 10//10
f 25//19 28//20 33//22 36//24
f 36//24 33//22 17//15 20//17
f 34//24 31//22 15//15 18//17
f 24//18 21//13 28//20 25//19
f 16//16 52//32 49//29 14//14
f 11//11 35//22 19//15 12//12
f 22//18 13//13 30//20 27//19
f 14//14 49//29 50//30 29//21
f 12//12 19//15 23//13 9//9
f 20//17 17//15 21//13 24//18
f 32//23 51//31 52//32 16//16
f 27//19 30//20 31//22 34//24
f 10//10 26//20 35//22 11//11
f 29//21 50//30 51//31 32//23
f 35//22 26//20 38//26 46//28
f 25//19 36//24 46//28 38//26
f 36//24 20//17 43//27 46//28
f 21//13 17//15 44//27 39//25
f 42//26 48//28 31//22 30//20
f 46//28 43//27 19//15 35//22
f 32//23 16//16 45//27 48//28
f 20//17 24//18 37//25 43//27
f 48//28 45//27 15//15 31//22
f 22//18 27//19 40//26 39//25
f 29//21 32//23 48//28 42//26
f 18//17 15//15 13//13 22//18
f 43//27 37//25 23//13 19//15
f 45//27 41//25 13//13 15//15
f 17//15 33//22 47//28 44//27
f 33//22 28//20 40//26 47//28
f 39//25 40//26 28//20 21//13
f 30//20 13//13 41//25 42//26
f 24//18 25//19 38//26 37//25
f 18//17 22//18 39//25 44//27
f 14//14 29//21 42//26 41//25
f 27//19 34//24 47//28 40//26
f 34//24 18//17 44//27 47//28
f 16//16 14//14 41//25 45//27
f 50//30 58//35 59//36 51//31
f 49//29 52//32 60//37 57//34
f 53//33 54//33 58//35 57//34
f 54//33 55//33 59//36 58//35
f 55//33 56//33 60//37 59//36
f 56//33 53//33 57//34 60//37
f 26//20 23//13 37//25 38//26
f 51//31 59//36 60//37 52//32
f 49//29 57//34 58//35 50//30
