# Blender 4.3.0
# www.blender.org
o Aircraft_carrier
v 0.598381 0.312169 -0.156084
v 0.573007 -0.000000 -0.033559
v 0.598381 0.312169 0.156084
v 0.573007 -0.000000 0.033559
v -0.508673 0.312169 -0.156084
v -0.424598 -0.000000 -0.013398
v -0.508673 0.312169 0.156084
v -0.424598 -0.000000 0.013398
v 0.573007 0.156084 -0.156084
v -0.424598 0.156084 0.136838
v 0.573007 0.156084 0.156084
v -0.424598 0.156084 -0.136838
v 0.074205 -0.000000 -0.047738
v 0.074205 0.312169 0.222029
v 0.074205 -0.000000 0.047738
v 0.074205 0.312169 -0.222029
v 0.074205 0.156084 -0.222029
v 0.074205 0.156084 0.222029
v 0.074205 0.234127 -0.222029
v 0.074205 0.234127 0.222029
v -0.054239 0.327835 0.380972
v -0.939699 0.327835 0.207074
v 0.941447 0.327835 -0.271376
v 0.941447 0.327835 0.271376
v -0.939699 0.327835 -0.335678
v 0.074205 0.327835 -0.386031
v -0.939699 0.340659 0.207074
v -0.054239 0.340659 0.380972
v 0.941447 0.340659 -0.271376
v 0.941447 0.340659 0.271376
v -0.939699 0.340659 -0.335678
v 0.074205 0.340659 -0.386031
v 0.819001 0.327835 0.619910
v 0.132273 0.327835 0.637916
v 0.819001 0.340659 0.619910
v 0.132273 0.340659 0.637916
v 0.336848 0.312169 0.188987
v 0.508744 0.327835 0.328582
v 0.508744 0.340659 0.328582
v 0.491381 0.327835 0.753183
v 0.491381 0.340659 0.753183
v 0.336293 0.312169 -0.189057
v 0.507826 0.327835 -0.328704
v 0.507826 0.340659 -0.328704
vn 0.3403 -0.8895 -0.3050
vn 0.8321 -0.3822 -0.4019
vn 0.3403 -0.8894 0.3050
vn 0.8321 -0.3822 0.4019
vn -0.2654 -0.9372 -0.2262
vn -0.8415 -0.3728 -0.3909
vn -0.2686 -0.9330 0.2396
vn -0.8415 -0.3728 0.3909
vn 0.6510 -0.3314 -0.6829
vn -0.5874 -0.4497 0.6728
vn 0.6510 -0.3314 0.6829
vn -0.5874 -0.4497 -0.6728
vn -0.0149 -0.6895 -0.7241
vn -0.0024 -0.7131 0.7011
vn -0.0149 -0.6895 0.7241
vn -0.0019 -0.7182 -0.6959
vn -0.0094 -0.3862 -0.9224
vn -0.0094 -0.3862 0.9224
vn -0.0054 -0.0533 -0.9986
vn -0.0054 -0.0533 0.9986
vn -0.3746 -0.6651 0.6460
vn -0.6327 -0.5779 0.5155
vn 0.6186 -0.5720 -0.5386
vn 0.8668 -0.4732 0.1572
vn -0.5963 -0.5700 -0.5653
vn 0.0304 -0.6560 -0.7541
vn -0.6245 0.5882 0.5138
vn -0.3234 0.7994 0.5063
vn 0.6101 0.5846 -0.5348
vn 0.7308 0.6711 0.1246
vn -0.5901 0.5800 -0.5616
vn 0.0297 0.6873 -0.7258
vn 0.7240 -0.0000 0.6898
vn -0.5865 -0.0000 0.8099
vn 0.5650 0.6253 0.5383
vn -0.4490 0.6434 0.6201
vn 0.0916 -0.6702 0.7365
vn 0.0121 -0.9951 0.0984
vn -0.0000 1.0000 -0.0000
vn 0.0379 -0.0000 0.9993
vn 0.0292 0.6377 0.7697
vn 0.0927 -0.6720 -0.7347
vn 0.0969 -0.6718 -0.7344
vn 0.0927 0.7071 -0.7010
s 1
f 5//5 7//7 22//22 25//25
f 18//18 20//20 14//14 7//7 10//10
f 10//10 7//7 5//5 12//12
f 9//9 1//1 3//3 11//11
f 13//13 6//6 12//12 17//17
f 12//12 5//5 16//16 19//19 17//17
f 11//11 3//3 20//20 18//18
f 7//7 14//14 21//21 22//22
f 2//2 13//13 17//17 9//9
f 4//4 2//2 9//9 11//11
f 15//15 4//4 11//11 18//18
f 15//15 18//18 10//10 8//8
f 43//43 26//26 32//32 44//44
f 26//26 25//25 31//31 32//32
f 3//3 1//1 23//23 24//24
f 16//16 5//5 25//25 26//26
f 37//37 3//3 24//24 38//38
f 42//42 16//16 26//26 43//43
f 28//28 32//32 31//31 27//27
f 24//24 23//23 29//29 30//30
f 24//24 30//30 35//35 33//33
f 25//25 22//22 27//27 31//31
f 22//22 21//21 28//28 27//27
f 40//40 33//33 35//35 41//41
f 39//39 28//28 36//36 41//41
f 28//28 21//21 34//34 36//36
f 30//30 39//39 41//41 35//35
f 34//34 40//40 41//41 36//36
f 14//14 37//37 38//38 21//21
f 1//1 42//42 43//43 23//23
f 23//23 43//43 44//44 29//29
f 9//9 17//17 19//19 1//1
f 1//1 19//19 16//16 42//42
f 14//14 20//20 3//3 37//37
f 39//39 44//44 32//32 28//28
f 30//30 29//29 44//44 39//39
f 8//8 10//10 12//12 6//6
