# Blender 4.3.2
# www.blender.org
o Aircraft_carrier_antenna_2_upg_1
v 0.261298 0.546756 -0.250031
v 0.220239 0.546756 -0.278588
v 0.248797 0.546756 -0.319648
v 0.289856 0.546756 -0.291090
v 0.256158 0.554289 -0.278656
v 0.248865 0.554289 -0.283729
v 0.253937 0.554289 -0.291022
v 0.261231 0.554289 -0.285950
v 0.261298 0.554289 -0.250031
v 0.220239 0.554289 -0.278588
v 0.248797 0.554289 -0.319648
v 0.289856 0.554289 -0.291090
v 0.261231 0.628632 -0.285950
v 0.253937 0.628632 -0.291022
v 0.248865 0.628632 -0.283729
v 0.256158 0.628632 -0.278656
vn 0.1767 -0.0000 0.9843
vn -0.9843 -0.0000 0.1767
vn -0.1768 -0.0000 -0.9843
vn 0.9843 -0.0000 -0.1767
vn 0.0754 0.9045 0.4197
vn -0.4197 0.9045 0.0754
vn -0.0754 0.9045 -0.4197
vn 0.4197 0.9045 -0.0754
vn 0.1443 0.5774 0.8036
vn -0.8036 0.5774 0.1443
vn -0.1443 0.5774 -0.8036
vn 0.8036 0.5774 -0.1443
s 1
f 1//1 4//4 12//12 9//9
f 3//3 2//2 10//10 11//11
f 4//4 3//3 11//11 12//12
f 2//2 1//1 9//9 10//10
f 5//5 6//6 10//10 9//9
f 6//6 7//7 11//11 10//10
f 7//7 8//8 12//12 11//11
f 8//8 5//5 9//9 12//12
f 8//8 7//7 14//11 13//12
f 6//6 5//5 16//9 15//10
f 16//9 13//12 14//11 15//10
f 7//7 6//6 15//10 14//11
f 5//5 8//8 13//12 16//9
