# Blender 4.3.2
# www.blender.org
o Aircraft_carrier_antenna
v 0.054041 0.563913 -0.258990
v 0.052223 0.563913 -0.269112
v 0.062346 0.563913 -0.270930
v 0.064164 0.563913 -0.260808
v 0.054041 0.790544 -0.258990
v 0.052223 0.790544 -0.269112
v 0.062346 0.790544 -0.270930
v 0.064164 0.790544 -0.260808
v 0.062346 0.664723 -0.270930
v 0.064164 0.664723 -0.260808
v 0.054041 0.664723 -0.258990
v 0.052223 0.664723 -0.269112
v 0.062346 0.675207 -0.270930
v 0.054041 0.675207 -0.258990
v 0.064164 0.675207 -0.260808
v 0.052223 0.675207 -0.269112
v 0.079706 0.675207 -0.174261
v 0.079706 0.664723 -0.174261
v 0.036682 0.675207 -0.355659
v 0.036682 0.664723 -0.355659
v 0.046804 0.664723 -0.357477
v 0.069583 0.664723 -0.172443
v 0.046804 0.675207 -0.357477
v 0.069583 0.675207 -0.172443
v 0.062346 0.735497 -0.270930
v 0.054041 0.735497 -0.258990
v 0.064164 0.735497 -0.260808
v 0.052223 0.735497 -0.269112
v 0.062346 0.739206 -0.270930
v 0.054041 0.739206 -0.258990
v 0.064164 0.739206 -0.260808
v 0.052223 0.739206 -0.269112
v 0.088792 0.739206 -0.123664
v 0.088792 0.735497 -0.123664
v 0.027596 0.739206 -0.406256
v 0.027596 0.735497 -0.406256
v 0.037718 0.735497 -0.408074
v 0.078669 0.735497 -0.121847
v 0.037718 0.739206 -0.408074
v 0.078669 0.739206 -0.121847
v 0.064164 0.711747 -0.260808
v 0.064164 0.704201 -0.260808
v 0.052223 0.711747 -0.269112
v 0.052223 0.704201 -0.269112
v 0.062346 0.704201 -0.270930
v 0.062346 0.711747 -0.270930
v 0.054041 0.704201 -0.258990
v 0.054041 0.711747 -0.258990
v 0.068499 0.704201 -0.236665
v 0.058377 0.704201 -0.234847
v 0.068499 0.711747 -0.236665
v 0.058377 0.711747 -0.234847
v 0.047888 0.704201 -0.293255
v 0.058010 0.704201 -0.295073
v 0.047888 0.711747 -0.293255
v 0.058010 0.711747 -0.295073
vn -0.5710 -0.0000 0.8210
vn -0.8210 -0.0000 -0.5710
vn 0.5710 -0.0000 -0.8210
vn 0.8210 -0.0000 0.5710
vn -0.4662 0.5774 0.6703
vn -0.6703 0.5774 -0.4662
vn 0.4662 0.5773 -0.6703
vn 0.6703 0.5773 0.4662
vn 0.8370 -0.3015 -0.4566
vn 0.9436 -0.3015 0.1369
vn -0.8370 -0.3015 0.4566
vn -0.9436 -0.3015 -0.1369
vn 0.8370 0.3015 -0.4566
vn -0.8370 0.3015 0.4566
vn 0.9436 0.3015 0.1369
vn -0.9436 0.3015 -0.1369
vn 0.6703 0.5774 0.4662
vn 0.6703 -0.5773 0.4662
vn -0.6703 0.5773 -0.4662
vn -0.6703 -0.5773 -0.4662
vn 0.4662 -0.5774 -0.6703
vn -0.4662 -0.5774 0.6703
vn 0.4662 0.5774 -0.6703
vn 0.6703 -0.5774 0.4662
vn -0.6703 -0.5774 -0.4662
vn 0.4662 -0.5773 -0.6703
vn -0.4662 -0.5773 0.6703
vn -0.4662 0.5773 0.6703
s 1
f 31//15 29//13 7//7 8//8
f 7//7 6//6 5//5 8//8
f 32//16 30//14 5//5 6//6
f 30//14 31//15 8//8 5//5
f 29//13 32//16 6//6 7//7
f 3//3 2//2 12//12 9//9
f 1//1 4//4 10//10 11//11
f 2//2 1//1 11//11 12//12
f 4//4 3//3 9//9 10//10
f 16//16 13//13 23//23 19//19
f 12//12 16//16 19//19 20//20
f 12//12 11//11 14//14 16//16
f 10//10 9//9 13//13 15//15
f 21//21 20//20 19//19 23//23
f 22//22 18//18 17//17 24//5
f 10//10 15//15 17//17 18//18
f 13//13 9//9 21//21 23//23
f 9//9 12//12 20//20 21//21
f 15//15 14//14 24//5 17//17
f 14//14 11//11 22//22 24//5
f 11//11 10//10 18//18 22//22
f 46//13 43//16 28//12 25//9
f 48//14 41//15 27//10 26//11
f 43//16 48//14 26//11 28//12
f 41//15 46//13 25//9 27//10
f 27//10 31//15 33//17 34//24
f 31//15 30//14 40//28 33//17
f 28//12 26//11 30//14 32//16
f 27//10 25//9 29//13 31//15
f 37//26 36//25 35//6 39//7
f 38//27 34//24 33//17 40//28
f 30//14 26//11 38//27 40//28
f 26//11 27//10 34//24 38//27
f 28//12 32//16 35//6 36//25
f 32//16 29//13 39//7 35//6
f 29//13 25//9 37//26 39//7
f 25//9 28//12 36//25 37//26
f 15//15 13//13 45//9 42//10
f 16//16 14//14 47//11 44//12
f 14//14 15//15 42//10 47//11
f 13//13 16//16 44//12 45//9
f 44//12 47//11 48//14 43//16
f 46//13 45//9 54//21 56//7
f 42//10 45//9 46//13 41//15
f 41//15 48//14 52//5 51//8
f 54//21 53//25 55//6 56//7
f 50//22 49//24 51//8 52//5
f 48//14 47//11 50//22 52//5
f 45//9 44//12 53//25 54//21
f 47//11 42//10 49//24 50//22
f 42//10 41//15 51//8 49//24
f 44//12 43//16 55//6 53//25
f 43//16 46//13 56//7 55//6
