# Blender 4.3.1
# www.blender.org
o Base_tanks_3_upg_2
v 0.442739 0.420187 0.088617
v 0.530111 0.420187 0.088617
v 0.442739 0.420187 0.221921
v 0.530111 0.420187 0.221921
v 0.477112 0.435840 0.221921
v 0.477112 0.449792 0.221921
v 0.495738 0.435840 0.221921
v 0.495738 0.449792 0.221921
v 0.499590 0.452677 0.378124
v 0.499590 0.432955 0.378124
v 0.473260 0.432955 0.378124
v 0.473260 0.452677 0.378124
v 0.442739 0.465445 0.152808
v 0.530111 0.465445 0.152808
v 0.442739 0.458547 0.221921
v 0.530111 0.458547 0.221921
v 0.415431 0.368803 0.053826
v 0.419936 0.368803 0.046952
v 0.419936 0.422199 0.046952
v 0.415431 0.422199 0.053826
v 0.552914 0.368803 0.046952
v 0.557419 0.368803 0.053826
v 0.557419 0.422199 0.053826
v 0.552914 0.422199 0.046952
v 0.419936 0.368803 0.263586
v 0.415431 0.368803 0.256712
v 0.415431 0.422199 0.256712
v 0.419936 0.422199 0.263586
v 0.557419 0.368803 0.256712
v 0.552914 0.368803 0.263586
v 0.552914 0.422199 0.263586
v 0.557419 0.422199 0.256712
v 0.477112 0.449792 0.334481
v 0.495738 0.449792 0.334481
v 0.495738 0.435840 0.334481
v 0.477112 0.435840 0.334481
v 0.726716 0.420187 0.088617
v 0.814088 0.420187 0.088617
v 0.726716 0.420187 0.221921
v 0.814088 0.420187 0.221921
v 0.761089 0.435840 0.221921
v 0.761089 0.449792 0.221921
v 0.779716 0.435840 0.221921
v 0.779716 0.449792 0.221921
v 0.783567 0.452677 0.378124
v 0.783567 0.432955 0.378124
v 0.757237 0.432955 0.378124
v 0.757237 0.452677 0.378124
v 0.726716 0.465445 0.152808
v 0.814088 0.465445 0.152808
v 0.726716 0.458547 0.221921
v 0.814088 0.458547 0.221921
v 0.699408 0.368803 0.053826
v 0.703913 0.368803 0.046952
v 0.703913 0.422199 0.046952
v 0.699408 0.422199 0.053826
v 0.836891 0.368803 0.046952
v 0.841396 0.368803 0.053826
v 0.841396 0.422199 0.053826
v 0.836891 0.422199 0.046952
v 0.703913 0.368803 0.263586
v 0.699408 0.368803 0.256712
v 0.699408 0.422199 0.256712
v 0.703913 0.422199 0.263586
v 0.841396 0.368803 0.256712
v 0.836891 0.368803 0.263586
v 0.836891 0.422199 0.263586
v 0.841396 0.422199 0.256712
v 0.761089 0.449792 0.334481
v 0.779716 0.449792 0.334481
v 0.779716 0.435840 0.334481
v 0.761089 0.435840 0.334481
vn -0.3641 0.7612 -0.5367
vn 0.3641 0.7612 -0.5367
vn -0.7071 -0.0000 0.7071
vn 0.7071 -0.0000 0.7071
vn -1.0000 -0.0000 -0.0000
vn -0.7071 0.7071 -0.0000
vn 1.0000 -0.0000 -0.0000
vn 0.7071 0.7071 -0.0000
vn 0.6004 0.5926 0.5369
vn 0.7216 -0.0000 0.6923
vn -0.7216 -0.0000 0.6923
vn -0.6004 0.5926 0.5369
vn -0.6363 0.7461 -0.1963
vn 0.6363 0.7461 -0.1963
vn -0.5828 0.5453 0.6025
vn 0.5828 0.5453 0.6025
vn -0.9582 -0.0000 -0.2860
vn -0.4753 -0.0000 -0.8798
vn -0.3751 0.6141 -0.6943
vn -0.7298 0.6480 -0.2179
vn 0.4753 -0.0000 -0.8798
vn 0.9582 -0.0000 -0.2860
vn 0.7298 0.6480 -0.2179
vn 0.3751 0.6141 -0.6943
vn -0.4753 -0.0000 0.8798
vn -0.9582 -0.0000 0.2860
vn -0.7298 0.6480 0.2179
vn -0.3751 0.6141 0.6943
vn 0.9582 -0.0000 0.2860
vn 0.4753 -0.0000 0.8798
vn 0.3751 0.6141 0.6943
vn 0.7298 0.6480 0.2179
vn -0.7033 0.7087 -0.0556
vn 0.7033 0.7087 -0.0556
vn 0.9990 -0.0000 -0.0449
vn -0.9990 -0.0000 -0.0449
s 1
f 26//26 27//27 20//20 17//17
f 30//30 31//31 28//28 25//25
f 31//31 32//32 23//23 24//24 19//19 20//20 27//27 28//28
f 22//22 23//23 32//32 29//29
f 2//2 14//14 16//16 4//4
f 3//3 15//15 13//13 1//1
f 10//10 9//9 12//12 11//11
f 34//34 33//33 12//12 9//9
f 35//35 34//34 9//9 10//10
f 4//4 16//16 15//15 3//3
f 17//17 20//20 19//19 18//18
f 23//23 22//22 21//21 24//24
f 31//31 30//30 29//29 32//32
f 27//27 26//26 25//25 28//28
f 18//18 19//19 24//24 21//21
f 6//6 5//5 36//36 33//33
f 7//7 8//8 34//34 35//35
f 8//8 6//6 33//33 34//34
f 13//13 14//14 2//2 1//1
f 15//15 16//16 14//14 13//13
f 33//33 36//36 11//11 12//12
f 62//26 63//27 56//20 53//17
f 66//30 67//31 64//28 61//25
f 67//31 68//32 59//23 60//24 55//19 56//20 63//27 64//28
f 58//22 59//23 68//32 65//29
f 38//2 50//14 52//16 40//4
f 39//3 51//15 49//13 37//1
f 46//10 45//9 48//12 47//11
f 70//34 69//33 48//12 45//9
f 71//35 70//34 45//9 46//10
f 40//4 52//16 51//15 39//3
f 53//17 56//20 55//19 54//18
f 59//23 58//22 57//21 60//24
f 67//31 66//30 65//29 68//32
f 63//27 62//26 61//25 64//28
f 54//18 55//19 60//24 57//21
f 42//6 41//5 72//36 69//33
f 43//7 44//8 70//34 71//35
f 44//8 42//6 69//33 70//34
f 49//13 50//14 38//2 37//1
f 51//15 52//16 50//14 49//13
f 69//33 72//36 47//11 48//12
