# Blender 4.3.1
# www.blender.org
o base_barrier_2
v -1.004904 0.537004 0.938299
v -1.004904 0.442754 0.938299
v -1.004904 0.409114 0.891174
v -1.004904 0.537004 0.844049
v -1.004904 0.442754 0.844049
v -1.004904 0.537004 0.800694
v -1.004904 0.442754 0.800694
v -1.004904 0.409114 0.753569
v -1.004904 0.537004 0.706444
v -1.004904 0.442754 0.706444
v -1.004904 0.537004 0.663089
v -1.004904 0.442754 0.663089
v -1.004904 0.409114 0.615964
v -1.004904 0.537004 0.568839
v -1.004904 0.442754 0.568839
v -1.004904 0.537004 0.525484
v -1.004904 0.442754 0.525484
v -1.004904 0.409114 0.478359
v -1.004904 0.537004 0.431235
v -1.004904 0.442754 0.431235
v -1.004904 0.537004 0.387880
v -1.004904 0.442754 0.387880
v -1.004904 0.409114 0.340755
v -1.004904 0.537004 0.293630
v -1.004904 0.442754 0.293630
v -1.004904 0.537004 0.250275
v -1.004904 0.442754 0.250275
v -1.004904 0.409114 0.203150
v -1.004904 0.537004 0.156025
v -1.004904 0.442754 0.156025
v -1.004904 0.537004 0.112670
v -1.004904 0.442754 0.112670
v -1.004904 0.409114 0.065545
v -1.004904 0.537004 0.018420
v -1.004904 0.442754 0.018420
v -1.004904 0.537004 -0.024935
v -1.004904 0.442754 -0.024935
v -1.004904 0.409114 -0.072060
v -1.004904 0.537004 -0.119185
v -1.004904 0.442754 -0.119185
v -1.004904 0.537004 -0.162540
v -1.004904 0.442754 -0.162540
v -1.004904 0.409114 -0.209665
v -1.004904 0.537004 -0.256790
v -1.004904 0.442754 -0.256790
v -1.004904 0.537004 -0.300145
v -1.004904 0.442754 -0.300145
v -1.004904 0.409114 -0.347270
v -1.004904 0.537004 -0.394395
v -1.004904 0.442754 -0.394395
v -1.004904 0.537004 -0.437750
v -1.004904 0.442754 -0.437750
v -1.004904 0.409114 -0.484875
v -1.004904 0.537004 -0.532000
v -1.004904 0.442754 -0.532000
v -1.004904 0.537004 -0.575355
v -1.004904 0.442754 -0.575355
v -1.004904 0.409114 -0.622479
v -1.004904 0.537004 -0.669604
v -1.004904 0.442754 -0.669604
v -1.004904 0.537004 -0.712959
v -1.004904 0.442754 -0.712959
v -1.004904 0.409114 -0.760084
v -1.004904 0.537004 -0.807209
v -1.004904 0.442754 -0.807209
v -1.004904 0.537004 -0.850564
v -1.004904 0.442754 -0.850564
v -1.004904 0.409114 -0.897689
v -1.004904 0.537004 -0.944814
v -1.004904 0.442754 -0.944814
v 0.938299 0.537004 1.004904
v 0.938299 0.442754 1.004904
v 0.891174 0.409114 1.004904
v 0.844049 0.537004 1.004904
v 0.844049 0.442754 1.004904
v 0.806349 0.537004 1.004904
v 0.806349 0.442754 1.004904
v 0.759224 0.409114 1.004904
v 0.712099 0.537004 1.004904
v 0.712099 0.442754 1.004904
v 0.674399 0.537004 1.004904
v 0.674399 0.442754 1.004904
v 0.627274 0.409114 1.004904
v 0.580149 0.537004 1.004904
v 0.580149 0.442754 1.004904
v 0.542449 0.537004 1.004904
v 0.542449 0.442754 1.004904
v 0.495324 0.409114 1.004904
v 0.448200 0.537004 1.004904
v 0.448200 0.442754 1.004904
v 0.410500 0.537004 1.004904
v 0.410500 0.442754 1.004904
v 0.363375 0.409114 1.004904
v 0.316250 0.537004 1.004904
v 0.316250 0.442754 1.004904
v 0.278550 0.537004 1.004904
v 0.278550 0.442754 1.004904
v 0.231425 0.409114 1.004904
v 0.184300 0.537004 1.004904
v 0.184300 0.442754 1.004904
v 0.146600 0.537004 1.004904
v 0.146600 0.442754 1.004904
v 0.099475 0.409114 1.004904
v 0.052350 0.537004 1.004904
v 0.052350 0.442754 1.004904
v 0.014650 0.537004 1.004904
v 0.014650 0.442754 1.004904
v -0.032475 0.409114 1.004904
v -0.079600 0.537004 1.004904
v -0.079600 0.442754 1.004904
v -0.117300 0.537004 1.004904
v -0.117300 0.442754 1.004904
v -0.164425 0.409114 1.004904
v -0.211550 0.537004 1.004904
v -0.211550 0.442754 1.004904
v -0.249250 0.537004 1.004904
v -0.249250 0.442754 1.004904
v -0.296375 0.409114 1.004904
v -0.343500 0.537004 1.004904
v -0.343500 0.442754 1.004904
v -0.381200 0.537004 1.004904
v -0.381200 0.442754 1.004904
v -0.428325 0.409114 1.004904
v -0.475450 0.537004 1.004904
v -0.475450 0.442754 1.004904
v -0.513150 0.537004 1.004904
v -0.513150 0.442754 1.004904
v -0.560274 0.409114 1.004904
v -0.607399 0.537004 1.004904
v -0.607399 0.442754 1.004904
v 1.004904 0.537004 -0.938299
v 1.004904 0.442754 -0.938299
v 1.004904 0.409114 -0.891174
v 1.004904 0.537004 -0.844049
v 1.004904 0.442754 -0.844049
v 1.004904 0.537004 -0.800694
v 1.004904 0.442754 -0.800694
v 1.004904 0.409114 -0.753569
v 1.004904 0.537004 -0.706444
v 1.004904 0.442754 -0.706444
v 1.004904 0.537004 -0.663089
v 1.004904 0.442754 -0.663089
v 1.004904 0.409114 -0.615964
v 1.004904 0.537004 -0.568839
v 1.004904 0.442754 -0.568839
v 1.004904 0.537004 -0.525485
v 1.004904 0.442754 -0.525485
v 1.004904 0.409114 -0.478360
v 1.004904 0.537004 -0.431235
v 1.004904 0.442754 -0.431235
v 1.004904 0.537004 -0.387880
v 1.004904 0.442754 -0.387880
v 1.004904 0.409114 -0.340755
v 1.004904 0.537004 -0.293630
v 1.004904 0.442754 -0.293630
v 1.004904 0.537004 -0.250275
v 1.004904 0.442754 -0.250275
v 1.004904 0.409114 -0.203150
v 1.004904 0.537004 -0.156025
v 1.004904 0.442754 -0.156025
v 1.004904 0.537004 -0.112670
v 1.004904 0.442754 -0.112670
v 1.004904 0.409114 -0.065545
v 1.004904 0.537004 -0.018420
v 1.004904 0.442754 -0.018420
v 1.004904 0.537004 0.024935
v 1.004904 0.442754 0.024935
v 1.004904 0.409114 0.072060
v 1.004904 0.537004 0.119185
v 1.004904 0.442754 0.119185
v 1.004904 0.537004 0.162540
v 1.004904 0.442754 0.162540
v 1.004904 0.409114 0.209665
v 1.004904 0.537004 0.256790
v 1.004904 0.442754 0.256790
v 1.004904 0.537004 0.300145
v 1.004904 0.442754 0.300145
v 1.004904 0.409114 0.347270
v 1.004904 0.537004 0.394395
v 1.004904 0.442754 0.394395
v 1.004904 0.537004 0.437750
v 1.004904 0.442754 0.437750
v 1.004904 0.409114 0.484874
v 1.004904 0.537004 0.531999
v 1.004904 0.442754 0.531999
v 1.004904 0.537004 0.575354
v 1.004904 0.442754 0.575354
v 1.004904 0.409114 0.622479
v 1.004904 0.537004 0.669604
v 1.004904 0.442754 0.669604
v 1.004904 0.537004 0.712959
v 1.004904 0.442754 0.712959
v 1.004904 0.409114 0.760084
v 1.004904 0.537004 0.807209
v 1.004904 0.442754 0.807209
v 1.004904 0.537004 0.850564
v 1.004904 0.442754 0.850564
v 1.004904 0.409114 0.897689
v 1.004904 0.537004 0.944814
v 1.004904 0.442754 0.944814
vn -1.0000 -0.0000 -0.0000
vn -0.0000 -0.0000 1.0000
vn 1.0000 -0.0000 -0.0000
s 0
f 1//1 4//1 5//1 3//1 2//1
f 6//1 9//1 10//1 8//1 7//1
f 11//1 14//1 15//1 13//1 12//1
f 16//1 19//1 20//1 18//1 17//1
f 21//1 24//1 25//1 23//1 22//1
f 26//1 29//1 30//1 28//1 27//1
f 31//1 34//1 35//1 33//1 32//1
f 36//1 39//1 40//1 38//1 37//1
f 41//1 44//1 45//1 43//1 42//1
f 46//1 49//1 50//1 48//1 47//1
f 51//1 54//1 55//1 53//1 52//1
f 56//1 59//1 60//1 58//1 57//1
f 61//1 64//1 65//1 63//1 62//1
f 66//1 69//1 70//1 68//1 67//1
f 106//2 109//2 110//2 108//2 107//2
f 71//2 74//2 75//2 73//2 72//2
f 86//2 89//2 90//2 88//2 87//2
f 76//2 79//2 80//2 78//2 77//2
f 81//2 84//2 85//2 83//2 82//2
f 91//2 94//2 95//2 93//2 92//2
f 96//2 99//2 100//2 98//2 97//2
f 126//2 129//2 130//2 128//2 127//2
f 111//2 114//2 115//2 113//2 112//2
f 116//2 119//2 120//2 118//2 117//2
f 121//2 124//2 125//2 123//2 122//2
f 101//2 104//2 105//2 103//2 102//2
f 131//3 134//3 135//3 133//3 132//3
f 136//3 139//3 140//3 138//3 137//3
f 141//3 144//3 145//3 143//3 142//3
f 146//3 149//3 150//3 148//3 147//3
f 151//3 154//3 155//3 153//3 152//3
f 156//3 159//3 160//3 158//3 157//3
f 161//3 164//3 165//3 163//3 162//3
f 166//3 169//3 170//3 168//3 167//3
f 171//3 174//3 175//3 173//3 172//3
f 176//3 179//3 180//3 178//3 177//3
f 181//3 184//3 185//3 183//3 182//3
f 186//3 189//3 190//3 188//3 187//3
f 191//3 194//3 195//3 193//3 192//3
f 196//3 199//3 200//3 198//3 197//3
