# Blender 4.2.3 LTS
# www.blender.org
o base_light_poles
v 0.224812 0.362120 -0.708878
v 0.224812 0.903875 -0.708878
v 0.224812 0.362120 -0.719412
v 0.224812 0.903875 -0.719412
v 0.235346 0.362120 -0.708878
v 0.235346 0.903875 -0.708878
v 0.235346 0.362120 -0.719412
v 0.235346 0.903875 -0.719412
v -0.875376 0.362121 0.618942
v -0.875376 0.903876 0.618942
v -0.875376 0.362121 0.629476
v -0.875376 0.903876 0.629476
v -0.864842 0.362121 0.618942
v -0.864842 0.903876 0.618942
v -0.864842 0.362121 0.629476
v -0.864842 0.903876 0.629476
vn -1.0000 -0.0000 -0.0000
vn -0.0000 -0.0000 -1.0000
vn 1.0000 -0.0000 -0.0000
vn -0.0000 -0.0000 1.0000
s 0
f 1//1 2//1 4//1 3//1
f 3//2 4//2 8//2 7//2
f 7//3 8//3 6//3 5//3
f 5//4 6//4 2//4 1//4
f 9//1 11//1 12//1 10//1
f 11//4 15//4 16//4 12//4
f 15//3 13//3 14//3 16//3
f 13//2 9//2 10//2 14//2
