# Blender 4.3.1
# www.blender.org
o Base_hut_2_upg_1
v 0.455960 0.516782 -0.936707
v 0.455960 0.516782 -0.222285
v 0.566390 0.471040 -0.936707
v 0.566390 0.471040 -0.222285
v 0.612131 0.360611 -0.936707
v 0.612131 0.360611 -0.222285
v 0.299790 0.360611 -0.936707
v 0.299790 0.360611 -0.222285
v 0.345531 0.471040 -0.936707
v 0.345531 0.471040 -0.222285
vn -0.0000 1.0000 -0.0000
vn 0.7071 0.7071 -0.0000
vn 0.9239 0.3827 -0.0000
vn -0.9239 0.3827 -0.0000
vn -0.7071 0.7071 -0.0000
vn -0.0000 -0.0000 1.0000
vn -0.0000 -0.0000 -1.0000
s 1
f 1//1 2//1 4//2 3//2
f 3//2 4//2 6//3 5//3
f 7//4 8//4 10//5 9//5
f 9//5 10//5 2//1 1//1
s 0
f 6//6 4//6 10//6 8//6
f 2//6 10//6 4//6
f 3//7 5//7 7//7 9//7
f 1//7 3//7 9//7
