# Blender 4.3.1
# www.blender.org
o Base_storages
v 0.908362 0.360611 -0.615565
v 0.908362 0.614337 -0.615565
v 0.719744 0.360611 -0.612273
v 0.719744 0.614337 -0.612273
v 0.658327 0.360611 -0.790642
v 0.658327 0.614337 -0.790642
v 0.808986 0.360611 -0.904172
v 0.808986 0.614337 -0.904172
v 0.963517 0.360611 -0.795969
v 0.963517 0.614337 -0.795969
v 0.809155 0.452513 -0.894516
v 0.902550 0.537089 -0.623278
v 0.954385 0.537089 -0.792825
v 0.902550 0.452514 -0.623278
v 0.954385 0.452513 -0.792825
v 0.908362 0.452514 -0.615565
v 0.908362 0.437860 -0.615565
v 0.908362 0.537089 -0.615565
v 0.908362 0.522435 -0.615565
v 0.719744 0.522435 -0.612273
v 0.719744 0.537089 -0.612273
v 0.719744 0.437860 -0.612273
v 0.719744 0.452513 -0.612273
v 0.658327 0.522435 -0.790642
v 0.658327 0.537089 -0.790642
v 0.658327 0.437860 -0.790642
v 0.658327 0.452513 -0.790642
v 0.808986 0.522435 -0.904172
v 0.808986 0.537089 -0.904172
v 0.808986 0.437860 -0.904172
v 0.808986 0.452513 -0.904172
v 0.963517 0.522435 -0.795969
v 0.963517 0.537089 -0.795969
v 0.963517 0.437860 -0.795969
v 0.963517 0.452513 -0.795969
v 0.809155 0.537089 -0.894516
v 0.667562 0.452513 -0.787818
v 0.667562 0.537089 -0.787818
v 0.725283 0.452513 -0.620184
v 0.725283 0.537089 -0.620184
vn 0.6018 -0.0000 0.7986
vn 0.4834 0.5957 0.6415
vn -0.5736 -0.0000 0.8192
vn -0.4607 0.5957 0.6579
vn -0.9563 -0.0000 -0.2924
vn -0.7681 0.5957 -0.2348
vn -0.0175 -0.0000 -0.9998
vn -0.0140 0.5957 -0.8031
vn 0.9455 -0.0000 -0.3256
vn 0.7594 0.5957 -0.2615
vn -0.0126 -0.6933 -0.7205
vn 0.4337 -0.6933 0.5755
vn 0.6814 -0.6933 -0.2346
vn 0.4834 -0.5957 0.6415
vn 0.5809 0.2614 0.7709
vn -0.5536 0.2614 0.7907
vn -0.4607 -0.5957 0.6579
vn -0.9231 0.2614 -0.2822
vn -0.7681 -0.5957 -0.2348
vn -0.0168 0.2614 -0.9651
vn -0.0140 -0.5957 -0.8031
vn 0.9127 0.2614 -0.3143
vn 0.7594 -0.5957 -0.2615
vn -0.6891 -0.6933 -0.2107
vn -0.4133 -0.6933 0.5903
s 1
f 21//17 4//4 6//6 25//19
f 23//17 20//16 24//18 27//19
f 27//19 24//18 28//20 31//21
f 4//4 2//2 10//10 8//8 6//6
f 31//21 28//20 32//22 35//23
f 18//14 2//2 4//4 21//17
f 16//14 19//15 20//16 23//17
f 33//23 10//10 2//2 18//14
f 34//22 30//20 11//11 15//13
f 7//7 30//20 34//22 9//9
f 29//21 8//8 10//10 33//23
f 5//5 26//18 30//20 7//7
f 25//19 6//6 8//8 29//21
f 3//3 22//16 26//18 5//5
f 9//9 34//22 17//15 1//1
f 35//23 32//22 19//15 16//14
f 27//19 31//21 11//11 37//24
f 17//15 34//22 15//13 14//12
f 28//20 24//18 38//24 36//11
f 30//20 26//18 37//24 11//11
f 23//17 27//19 37//24 39//25
f 18//14 21//17 40//25 12//12
f 24//18 20//16 40//25 38//24
f 33//23 18//14 12//12 13//13
f 29//21 33//23 13//13 36//11
f 1//1 17//15 22//16 3//3
f 14//12 39//25 22//16 17//15
f 39//25 37//24 26//18 22//16
f 36//11 13//13 32//22 28//20
f 12//12 40//25 20//16 19//15
f 35//23 16//14 14//12 15//13
f 31//21 35//23 15//13 11//11
f 21//17 25//19 38//24 40//25
f 25//19 29//21 36//11 38//24
f 16//14 23//17 39//25 14//12
f 13//13 12//12 19//15 32//22
