# Blender 4.3.2
# www.blender.org
o Missile
v -0.115329 -0.000000 -0.000000
v -0.254752 0.052167 -0.052167
v -0.254752 0.019094 0.071261
v -0.254752 -0.071261 -0.019094
v -0.540648 0.019094 0.071261
v -0.540648 0.052167 -0.052167
v -0.540648 -0.071261 -0.019094
v -0.692970 0.027391 0.102227
v -0.692970 0.074835 -0.074835
v -0.692970 -0.102227 -0.027392
v -0.912079 -0.000000 -0.000000
v -0.311579 -0.071261 -0.019094
v -0.483821 -0.071261 -0.019094
v -0.483821 0.052167 -0.052167
v -0.311579 0.052167 -0.052167
v -0.311579 0.019094 0.071261
v -0.483821 0.019094 0.071261
v -0.158949 0.045767 -0.045767
v -0.158949 0.016752 0.062519
v -0.158949 -0.062519 -0.016752
v -0.135506 -0.077233 -0.086079
v -0.135506 0.023846 -0.113162
v -0.135506 -0.035930 0.109925
v -0.135506 -0.109925 0.035930
v -0.135506 0.113162 -0.023846
v -0.135506 0.086078 0.077233
v -0.004648 -0.049425 -0.184455
v -0.004648 -0.135031 0.135031
v -0.004648 0.184455 0.049425
vn 1.0000 -0.0000 -0.0000
vn 0.0941 0.7040 -0.7040
vn 0.0941 0.2577 0.9616
vn 0.0941 -0.9616 -0.2577
vn 0.2059 0.2533 0.9452
vn 0.2059 0.6919 -0.6919
vn 0.2059 -0.9452 -0.2533
vn -0.1039 0.2574 0.9607
vn -0.1039 0.7033 -0.7033
vn -0.1039 -0.9607 -0.2574
vn -1.0000 -0.0000 -0.0000
vn -0.0000 -0.9659 -0.2588
vn -0.0000 0.7071 -0.7071
vn -0.0000 0.2588 0.9659
vn -0.0600 0.7058 -0.7058
vn -0.0600 0.2584 0.9642
vn -0.0600 -0.9642 -0.2584
vn -0.3629 -0.9181 -0.1594
vn -0.3629 0.7154 -0.5971
vn -0.3629 0.3210 0.8748
vn -0.3629 -0.8748 -0.3210
vn -0.3629 0.5971 -0.7154
vn -0.3629 0.1594 0.9181
vn 0.7346 -0.1756 -0.6554
vn 0.7346 -0.4798 0.4798
vn 0.7346 0.6554 0.1756
s 1
f 18//15 2//2 3//3 19//16
f 19//16 3//3 4//4 20//17
f 20//17 4//4 2//2 18//15
f 6//6 7//7 10//10 9//9
f 9//9 10//10 11//11
f 7//7 5//5 8//8 10//10
f 5//5 6//6 9//9 8//8
f 10//10 8//8 11//11
f 8//8 9//9 11//11
f 16//14 15//13 14//13 17//14
f 12//12 16//14 17//14 13//12
f 15//13 12//12 13//12 14//13
f 1//1 24//21 20//17
f 1//1 22//19 18//15
f 18//15 22//19 21//18 20//17
f 24//21 23//20 19//16 20//17
f 26//23 25//22 18//15 19//16
f 1//1 25//22 29//26
f 23//20 24//21 28//25
f 21//18 22//19 27//24
f 22//19 1//1 27//24
f 1//1 21//18 27//24
f 24//21 1//1 28//25
f 1//1 23//20 28//25
f 26//23 1//1 29//26
f 25//22 26//23 29//26
f 1//1 26//23 19//16
f 1//1 20//17 21//18
f 1//1 19//16 23//20
f 1//1 18//15 25//22
