# Blender 4.3.2
# www.blender.org
o Missile_stripes
v -0.254752 0.052167 -0.052167
v -0.254752 0.019094 0.071261
v -0.254752 -0.071261 -0.019094
v -0.540648 0.019094 0.071261
v -0.540648 0.052167 -0.052167
v -0.540648 -0.071261 -0.019094
v -0.311579 -0.071261 -0.019094
v -0.483821 -0.071261 -0.019094
v -0.483821 0.052167 -0.052167
v -0.311579 0.052167 -0.052167
v -0.311579 0.019094 0.071261
v -0.483821 0.019094 0.071261
vn -0.0000 0.7071 -0.7071
vn -0.0000 0.2588 0.9659
vn -0.0000 -0.9659 -0.2588
s 1
f 9//1 8//3 6//3 5//1
f 8//3 12//2 4//2 6//3
f 12//2 9//1 5//1 4//2
f 2//2 1//1 10//1 11//2
f 3//3 2//2 11//2 7//3
f 1//1 3//3 7//3 10//1
