# Blender 4.3.2
# www.blender.org
o Ship_sail
v -0.173577 0.248136 0.200930
v -0.173577 0.248136 -0.200930
v -0.015568 0.248136 0.200930
v -0.015568 0.248136 -0.200930
v -0.377279 0.253263 0.124881
v -0.377279 0.253263 -0.124881
v -0.280171 0.253263 0.124881
v -0.280171 0.253263 -0.124881
v -0.015568 0.325724 0.200930
v -0.038795 0.334202 0.200930
v -0.038795 0.334202 -0.200930
v -0.015568 0.325724 -0.200930
v -0.301038 0.301947 0.124881
v -0.301038 0.301947 -0.124881
v 0.416060 0.227299 0.144834
v 0.416060 0.227299 -0.144834
v 0.637734 0.227299 0.144834
v 0.637734 0.227299 -0.144834
v 0.469787 0.335938 0.087582
v 0.469787 0.335938 -0.087582
v 0.579792 0.335938 -0.087582
v 0.579792 0.335938 0.087582
vn -0.5061 0.7925 0.3402
vn -0.5061 0.7925 -0.3402
vn 0.7071 -0.0000 0.7071
vn 0.7071 -0.0000 -0.7071
vn 0.7381 0.3163 0.5960
vn 0.7381 0.3163 -0.5960
vn 0.6567 0.4594 0.5980
vn -0.0855 0.7802 0.6196
vn -0.0855 0.7802 -0.6196
vn 0.6567 0.4594 -0.5980
vn 0.2420 0.7857 0.5692
vn 0.2420 0.7857 -0.5692
vn -0.5697 0.5856 0.5766
vn -0.5697 0.5856 -0.5766
vn 0.5664 0.5999 0.5651
vn 0.5664 0.5999 -0.5651
vn -0.4274 0.8028 0.4158
vn -0.4274 0.8028 -0.4158
vn 0.4147 0.8088 -0.4169
vn 0.4147 0.8088 0.4169
s 1
f 3//3 9//7 10//8 1//1
f 2//2 11//9 12//10 4//4
f 4//4 12//10 9//7 3//3
f 7//5 13//11 5//1
f 6//2 14//12 8//6
f 11//9 10//8 9//7 12//10
f 11//9 2//2 1//1 10//8
f 14//12 6//2 5//1 13//11
f 16//14 20//18 21//19 18//16
f 17//15 22//20 19//17 15//13
f 16//14 15//13 19//17 20//18
f 19//17 22//20 21//19 20//18
f 14//12 13//11 7//5 8//6
f 18//16 21//19 22//20 17//15
