# Blender 4.3.2
# www.blender.org
o Ship
v 0.066376 0.513183 0.038365
v 0.066376 0.513183 -0.038365
v 0.190617 0.513183 0.038365
v 0.190617 0.513183 -0.038365
v 0.031519 0.249513 0.175643
v 0.060331 0.351602 0.143623
v 0.031519 0.249513 -0.175643
v 0.060331 0.351602 -0.143623
v 0.390916 0.249513 0.175643
v 0.390916 0.249513 -0.175643
v 0.355270 0.351602 0.143623
v 0.355270 0.351602 -0.143623
v -0.834031 0.311136 0.000000
v -0.834031 -0.003876 0.000000
v 0.644886 0.258190 0.198397
v 0.644886 -0.003876 0.000000
v 0.644886 0.258190 -0.198397
v 0.166229 -0.003876 0.000000
v 0.068083 0.258190 -0.291606
v 0.068083 0.258190 0.291606
v 0.824084 0.258190 -0.195898
v 0.824084 -0.003876 0.000000
v 0.824084 0.258190 0.195898
v -0.469067 -0.003876 0.000000
v -0.504878 0.255577 0.111893
v -0.504878 0.255577 -0.111893
v 0.341503 0.350411 -0.063849
v 0.341503 0.350411 0.063849
v 0.199259 0.350411 -0.063849
v 0.199259 0.350411 0.063849
v 0.219499 0.562867 0.063849
v 0.219499 0.562867 -0.063849
v 0.272484 0.562867 -0.063849
v 0.272484 0.562867 0.063849
v 0.485053 0.329696 0.044013
v 0.485053 0.329696 -0.044013
v 0.558958 0.329696 -0.044013
v 0.558958 0.329696 0.044013
v 0.558958 0.364043 -0.037221
v 0.558958 0.364043 0.037221
v 0.044066 0.252739 0.208802
v 0.061222 0.252739 0.274267
v 0.256796 0.252739 0.245590
v 0.239640 0.252739 0.180125
v 0.044066 0.296426 0.208802
v 0.239640 0.296426 0.180125
v 0.044066 0.252739 -0.208802
v 0.061222 0.252739 -0.274267
v 0.256796 0.252739 -0.245590
v 0.239640 0.252739 -0.180125
v 0.044066 0.296426 -0.208802
v 0.239640 0.296426 -0.180125
v 0.066376 0.339629 0.032835
v 0.066376 0.339629 -0.032835
v 0.190617 0.339629 -0.032835
v 0.190617 0.339629 0.032835
v 0.066376 0.453048 0.032835
v 0.066376 0.453048 -0.032835
v 0.190617 0.453048 0.032835
v 0.190617 0.453048 -0.032835
v 0.066376 0.530214 -0.038365
v 0.190617 0.547582 -0.038365
v 0.066376 0.530214 0.038365
v 0.190617 0.547582 0.038365
vn -0.7071 -0.0000 0.7071
vn -0.7071 -0.0000 -0.7071
vn -0.0000 -0.0000 1.0000
vn -0.0000 -0.0000 -1.0000
vn -0.6468 0.3884 0.6564
vn -0.4942 0.7234 0.4821
vn -0.6468 0.3884 -0.6564
vn -0.4942 0.7234 -0.4821
vn 0.6453 0.4245 0.6351
vn 0.6453 0.4245 -0.6351
vn 0.4707 0.7375 0.4843
vn 0.4707 0.7375 -0.4843
vn -0.9799 0.1997 -0.0000
vn -0.6534 -0.7570 -0.0000
vn 0.0423 0.4429 0.8956
vn 0.0551 -0.9985 -0.0000
vn 0.0423 0.4429 -0.8956
vn -0.0158 -0.9999 -0.0000
vn -0.0468 0.3810 -0.9234
vn -0.0468 0.3810 0.9234
vn 0.5530 0.3747 -0.7442
vn 0.5674 -0.8235 -0.0000
vn 0.5530 0.3747 0.7442
vn -0.3101 -0.9507 -0.0000
vn -0.0805 0.5268 0.8462
vn -0.0805 0.5268 -0.8462
vn 0.7427 0.2413 -0.6247
vn 0.7427 0.2413 0.6247
vn -0.7255 0.0691 -0.6847
vn -0.7255 0.0691 0.6847
vn -0.5468 0.6014 0.5825
vn -0.5468 0.6014 -0.5825
vn 0.4721 0.6498 -0.5957
vn 0.4721 0.6498 0.5957
vn -0.3858 0.8831 0.2671
vn -0.3858 0.8831 -0.2671
vn 0.6588 0.1459 -0.7380
vn 0.6588 0.1459 0.7380
vn 0.4634 0.7450 -0.4798
vn 0.4634 0.7450 0.4798
vn -0.8340 -0.0000 -0.5517
vn -0.2361 0.7786 0.5814
vn 0.4324 0.7982 0.4194
vn 0.5517 -0.0000 -0.8340
vn -0.6266 0.7217 -0.2940
vn 0.4623 0.7426 -0.4846
vn -0.8340 -0.0000 0.5517
vn -0.2361 0.7786 -0.5814
vn 0.4324 0.7982 -0.4194
vn 0.5517 -0.0000 0.8340
vn -0.6266 0.7217 0.2940
vn 0.4623 0.7426 0.4846
vn -0.6119 0.5323 -0.5850
vn -0.1023 0.7319 -0.6737
vn -0.6119 0.5323 0.5850
vn -0.1023 0.7319 0.6737
s 1
f 5//5 6//6 8//8 7//7
f 9//9 11//11 6//6 5//5
f 7//7 8//8 12//12 10//10
f 12//12 8//8 6//6 11//11
f 12//12 11//11 9//9 10//10
f 18//18 19//19 17//17 16//16
f 15//15 16//16 22//22 23//23
f 24//24 25//25 13//13 14//14
f 26//26 13//13 25//25
f 17//17 19//19 20//20 15//15
f 16//16 15//15 20//20 18//18
f 24//24 26//26 19//19 18//18
f 22//22 21//21 23//23
f 17//17 15//15 23//23 21//21
f 16//16 17//17 21//21 22//22
f 14//14 13//13 26//26 24//24
f 19//19 26//26 25//25 20//20
f 18//18 20//20 25//25 24//24
f 30//30 28//28 34//34 31//31
f 31//31 34//34 33//33 32//32
f 27//27 29//29 32//32 33//33
f 31//31 32//32 29//29 30//30
f 37//37 36//36 39//39
f 35//35 38//38 40//40
f 38//38 37//37 39//39 40//40
f 36//36 35//35 40//40 39//39
f 44//44 46//46 43//43
f 41//41 45//45 46//46 44//44
f 42//42 45//45 41//41
f 45//45 42//42 43//43 46//46
f 50//50 49//49 52//52
f 47//47 50//50 52//52 51//51
f 48//48 47//47 51//51
f 51//51 52//52 49//49 48//48
f 28//28 27//27 33//33 34//34
f 55//4 54//2 58//2 60//4
f 53//1 56//3 59//3 57//1
f 54//2 53//1 57//1 58//2
f 1//1 63//55 61//53 2//2
f 3//3 64//56 63//55 1//1
f 2//2 61//53 62//54 4//4
f 61//53 63//55 64//56 62//54
