# Blender 4.2.2 LTS
# www.blender.org
o Cube
v 0.500000 0.500000 -0.500000
v 0.500000 -0.500000 -0.500000
v 0.500000 0.500000 0.500000
v 0.500000 -0.500000 0.500000
v -0.500000 0.500000 -0.500000
v -0.500000 -0.500000 -0.500000
v -0.500000 0.500000 0.500000
v -0.500000 -0.500000 0.500000
v -0.609568 -0.609568 -0.000000
v 0.000000 -0.609568 -0.609568
v 0.609568 0.000000 -0.609568
v -0.609568 -0.000000 0.609568
v 0.609568 0.000000 0.609568
v -0.609568 -0.000000 -0.609568
v -0.000000 0.609568 0.609568
v 0.609568 0.609568 0.000000
v -0.000000 -0.609568 0.609568
v -0.609568 0.609568 -0.000000
v 0.000000 0.609568 -0.609568
v 0.609568 -0.609568 0.000000
v -0.000000 0.839506 -0.000000
v 0.000000 0.000000 0.839506
v -0.839506 0.000000 -0.000000
v 0.000000 -0.839506 0.000000
v 0.839506 0.000000 -0.000000
v 0.000000 0.000000 -0.839506
vn 0.5774 0.5774 -0.5774
vn 0.3374 0.6656 -0.6656
vn 0.3215 0.9469 -0.0000
vn 0.7071 0.7071 -0.0000
vn -0.3061 0.9015 -0.3061
vn -0.3061 0.9015 0.3061
vn 0.3374 0.6656 0.6656
vn 0.5774 0.5774 0.5774
vn 0.5774 -0.5774 0.5774
vn 0.7071 -0.0000 0.7071
vn 0.3215 -0.0000 0.9469
vn 0.3374 -0.6656 0.6656
vn -0.3061 0.3061 0.9015
vn -0.3061 -0.3061 0.9015
vn -0.9015 -0.3061 0.3061
vn -0.9015 0.3061 0.3061
vn -0.9015 0.3061 -0.3061
vn -0.9015 -0.3061 -0.3061
vn -0.3061 -0.9015 -0.3061
vn 0.3374 -0.6656 -0.6656
vn 0.5774 -0.5774 -0.5774
vn 0.7071 -0.7071 -0.0000
vn 0.3215 -0.9469 -0.0000
vn -0.3061 -0.9015 0.3061
vn 0.7071 -0.0000 -0.7071
vn 1.0000 -0.0000 -0.0000
vn -0.3061 -0.3061 -0.9015
vn -0.3061 0.3061 -0.9015
vn 0.3215 -0.0000 -0.9469
s 1
f 1//1 19//2 21//3 16//4
s 0
f 19//5 5//5 18//5 21//5
f 21//6 18//6 7//6 15//6
s 1
f 16//4 21//3 15//7 3//8
f 4//9 13//10 22//11 17//12
f 13//10 3//8 15//7 22//11
s 0
f 22//13 15//13 7//13 12//13
f 17//14 22//14 12//14 8//14
f 8//15 12//15 23//15 9//15
f 12//16 7//16 18//16 23//16
f 23//17 18//17 5//17 14//17
f 9//18 23//18 14//18 6//18
f 6//19 10//19 24//19 9//19
s 1
f 10//20 2//21 20//22 24//23
f 24//23 20//22 4//9 17//12
s 0
f 9//24 24//24 17//24 8//24
s 1
f 2//21 11//25 25//26 20//22
f 11//25 1//1 16//4 25//26
f 25//26 16//4 3//8 13//10
f 20//22 25//26 13//10 4//9
s 0
f 6//27 14//27 26//27 10//27
f 14//28 5//28 19//28 26//28
s 1
f 26//29 19//2 1//1 11//25
f 10//20 26//29 11//25 2//21
