# Blender 4.3.2
# www.blender.org
o Submarine_antenna_upg_1
v 0.423261 0.121977 0.009217
v 0.427895 0.224665 0.004583
v 0.423261 0.121977 -0.009217
v 0.427895 0.224665 -0.004583
v 0.441696 0.121977 0.009217
v 0.437061 0.224665 0.004583
v 0.441696 0.121977 -0.009217
v 0.437061 0.224665 -0.004583
v 0.423261 0.224665 0.009217
v 0.423261 0.224665 -0.009217
v 0.441696 0.224665 -0.009217
v 0.441696 0.224665 0.009217
v 0.427895 0.371219 0.004583
v 0.427895 0.371219 -0.004583
v 0.437061 0.371219 -0.004583
v 0.437061 0.371219 0.004583
v 0.359917 0.122284 0.003922
v 0.359917 0.283625 0.003922
v 0.359917 0.122284 -0.003922
v 0.359917 0.283625 -0.003922
v 0.367761 0.122284 0.003922
v 0.367761 0.283625 0.003922
v 0.367761 0.122284 -0.003922
v 0.367761 0.283625 -0.003922
vn -1.0000 -0.0000 -0.0000
vn -0.0000 -0.0000 -1.0000
vn 1.0000 -0.0000 -0.0000
vn -0.0000 -0.0000 1.0000
vn -0.0000 1.0000 -0.0000
s 0
f 1//1 9//1 10//1 3//1
f 3//2 10//2 11//2 7//2
f 7//3 11//3 12//3 5//3
f 5//4 12//4 9//4 1//4
f 2//4 6//4 16//4 13//4
f 2//5 4//5 10//5 9//5
f 4//5 8//5 11//5 10//5
f 8//5 6//5 12//5 11//5
f 6//5 2//5 9//5 12//5
f 15//5 14//5 13//5 16//5
f 8//2 4//2 14//2 15//2
f 6//3 8//3 15//3 16//3
f 4//1 2//1 13//1 14//1
f 17//1 18//1 20//1 19//1
f 19//2 20//2 24//2 23//2
f 23//3 24//3 22//3 21//3
f 21//4 22//4 18//4 17//4
f 24//5 20//5 18//5 22//5
