# Blender 4.3.0
# www.blender.org
o Submarine
v -0.447225 0.114856 0.018878
v -0.447225 0.114856 -0.018878
v -0.529172 -0.017436 0.197029
v -0.597579 -0.017436 0.115975
v -0.597579 -0.017436 -0.115975
v -0.529172 -0.017436 -0.197029
v 0.597577 -0.017436 0.115975
v 0.529169 -0.017436 0.197029
v 0.529169 -0.017436 -0.197029
v 0.597577 -0.017436 -0.115975
v -0.597579 0.069369 0.115975
v -0.529172 0.069369 0.197029
v -0.529172 0.069369 -0.197029
v -0.597579 0.069369 -0.115975
v 0.529169 0.069369 0.197029
v 0.577804 0.100217 0.031173
v 0.558434 0.134491 0.026445
v 0.577804 0.100217 -0.031173
v 0.529169 0.069369 -0.197029
v 0.558434 0.134491 -0.026445
v 0.447222 0.139653 -0.018878
v 0.447222 0.139653 0.018878
v 0.597577 0.014259 0.115975
v 0.549604 0.102555 0.100783
v 0.549604 0.102555 -0.100783
v 0.597577 0.014259 -0.115975
v 0.678918 0.238737 0.017749
v 0.678918 0.238737 -0.017749
v 0.757837 0.238718 0.000000
v 0.603843 0.016594 0.000000
v 0.666056 0.238737 0.000000
v 0.543821 0.141783 0.000000
v 0.597577 -0.017436 0.000000
v 0.597577 -0.003785 0.000000
v 0.320803 0.100819 0.111053
v 0.320803 0.100819 -0.111053
v 0.263198 0.149396 0.079711
v 0.263198 0.149396 -0.079711
v -0.597579 -0.017436 0.038658
v -0.597579 -0.017436 -0.038658
v -0.621686 -0.017436 0.000000
v -0.621686 0.069369 0.000000
v 0.048476 0.167560 0.047487
v 0.048476 0.167560 -0.047487
v 0.208800 0.167560 0.047487
v 0.208800 0.167560 -0.047487
v -0.022133 0.100819 0.111053
v -0.063527 0.100819 0.069468
v -0.063527 0.100819 -0.069468
v -0.022133 0.100819 -0.111053
v -0.005922 0.149396 0.038126
v 0.035472 0.149396 0.079711
v 0.022878 0.165935 0.062650
v 0.035472 0.149396 -0.079711
v -0.005922 0.149396 -0.038126
v 0.022878 0.165935 -0.062650
v -0.143153 0.134328 -0.020014
v -0.143153 0.134328 0.017741
v 0.150320 0.226917 0.006444
v 0.150320 0.226917 -0.006444
v 0.172075 0.226917 -0.006444
v 0.172075 0.226917 0.006444
v 0.150320 0.317098 0.006444
v 0.150320 0.317098 -0.006444
v 0.172075 0.317098 -0.006444
v 0.172075 0.317098 0.006444
v 0.051573 0.215153 0.045651
v 0.068228 0.226917 0.026372
v 0.068228 0.226917 -0.026372
v 0.051573 0.215153 -0.045651
v 0.189049 0.226917 -0.026372
v 0.205703 0.215153 -0.045651
v 0.189049 0.226917 0.026372
v 0.205703 0.215153 0.045651
v 0.105227 0.226917 0.006444
v 0.105227 0.226917 -0.006444
v 0.126982 0.226917 -0.006444
v 0.126982 0.226917 0.006444
v 0.105227 0.262067 0.006444
v 0.105227 0.262067 -0.006444
v 0.126982 0.262067 -0.006444
v 0.126982 0.262067 0.006444
vn -0.1424 0.9857 0.0902
vn -0.1491 0.9821 -0.1155
vn -0.4213 -0.0000 0.9069
vn -0.8992 -0.0000 0.4376
vn -0.8992 -0.0000 -0.4376
vn -0.4213 -0.0000 -0.9069
vn 0.9392 -0.0000 0.3434
vn 0.4213 -0.0000 0.9069
vn 0.4213 -0.0000 -0.9069
vn 0.9392 -0.0000 -0.3434
vn -0.7183 0.5816 0.3818
vn -0.3383 0.5448 0.7673
vn -0.3136 0.5355 -0.7841
vn -0.6803 0.5783 -0.4503
vn 0.3885 0.5082 0.7687
vn 0.6651 0.2107 0.7164
vn -0.0045 0.7495 0.6620
vn 0.6651 0.2107 -0.7164
vn 0.3883 0.5051 -0.7708
vn -0.0045 0.7495 -0.6620
vn -0.0007 0.9814 -0.1918
vn -0.0005 0.9818 0.1901
vn 0.9255 0.1709 0.3380
vn 0.4916 0.7878 0.3710
vn 0.4916 0.7878 -0.3710
vn 0.9255 0.1709 -0.3380
vn 0.0007 0.6503 0.7597
vn 0.0007 0.6503 -0.7597
vn 0.9863 0.1651 -0.0000
vn 0.9957 0.0926 -0.0000
vn -0.4350 0.9004 -0.0000
vn -0.2434 0.9699 -0.0000
vn 1.0000 -0.0000 -0.0000
vn 0.9970 0.0772 -0.0000
vn 0.4556 0.7966 0.3973
vn 0.4556 0.7966 -0.3973
vn 0.3143 0.8392 0.4437
vn 0.3143 0.8392 -0.4437
vn -1.0000 -0.0000 -0.0000
vn -0.8073 0.5880 -0.0507
vn -0.3781 0.7825 0.4946
vn -0.3781 0.7825 -0.4946
vn 0.3969 0.7742 0.4930
vn 0.3969 0.7742 -0.4930
vn -0.3155 0.7496 0.5819
vn -0.5479 0.8024 0.2367
vn -0.5479 0.8024 -0.2367
vn -0.3155 0.7496 -0.5819
vn -0.5007 0.8474 0.1770
vn -0.1716 0.7137 0.6791
vn -0.4334 0.7659 0.4749
vn -0.1716 0.7137 -0.6791
vn -0.5007 0.8474 -0.1770
vn -0.4334 0.7659 -0.4749
vn -0.0422 0.9902 -0.1328
vn -0.0267 0.9855 0.1674
vn -0.7071 -0.0000 0.7071
vn -0.7071 -0.0000 -0.7071
vn 0.7071 -0.0000 -0.7071
vn 0.7071 -0.0000 0.7071
vn -0.5774 0.5774 0.5774
vn -0.5774 0.5774 -0.5774
vn 0.5774 0.5774 -0.5774
vn 0.5774 0.5774 0.5774
vn -0.6128 0.4815 0.6266
vn -0.2382 0.9496 0.2038
vn -0.2382 0.9496 -0.2038
vn -0.6128 0.4815 -0.6266
vn 0.2382 0.9496 -0.2038
vn 0.6128 0.4815 -0.6266
vn 0.2382 0.9496 0.2038
vn 0.6128 0.4815 0.6266
s 1
f 24//24 15//15 23//23
f 8//8 15//15 12//12 3//3
f 33//33 34//34 23//23 7//7
f 2//2 1//1 58//56 57//55
f 6//6 13//13 19//19 9//9
f 26//26 19//19 25//25
f 7//7 23//23 15//15 8//8
f 11//11 4//4 3//3 12//12
f 13//13 6//6 5//5 14//14
f 26//26 10//10 9//9 19//19
f 30//30 18//18 28//28 29//29
f 17//17 16//16 27//27
f 18//18 20//20 28//28
f 16//16 30//30 29//29 27//27
f 29//29 28//28 31//31 27//27
f 20//20 32//32 31//31 28//28
f 17//17 27//27 31//31 32//32
f 10//10 26//26 34//34 33//33
f 30//30 34//34 26//26 18//18
f 23//23 34//34 30//30 16//16
f 24//24 23//23 16//16 17//17
f 26//26 25//25 20//20 18//18
f 11//11 42//40 41//39 4//4
f 25//25 21//21 32//32 20//20
f 57//55 58//56 22//22 21//21
f 22//22 24//24 17//17 32//32
f 46//44 44//42 70//68 72//70
f 54//52 38//38 36//36 50//48
f 56//54 55//53 51//49 53//51 43//41 44//42
f 38//38 37//37 35//35 36//36
f 43//41 45//43 74//72 67//65
f 44//42 43//41 67//65 70//68
f 45//43 46//44 72//70 74//72
f 35//35 37//37 52//50 47//45
f 42//40 14//14 5//5 41//39
f 37//37 38//38 46//44 45//43
f 38//38 54//52 56//54 44//42 46//44
f 53//51 52//50 37//37 45//43 43//41
f 22//22 32//32 21//21
f 11//11 1//1 42//40
f 2//2 42//40 1//1
f 51//49 52//50 53//51
f 54//52 55//53 56//54
f 51//49 48//46 47//45 52//50
f 54//52 50//48 49//47 55//53
f 51//49 55//53 49//47 48//46
f 58//56 1//1 11//11 12//12
f 12//12 15//15 22//22 58//56
f 24//24 22//22 15//15
f 57//55 14//14 42//40 2//2
f 57//55 21//21 13//13 14//14
f 25//25 19//19 21//21
f 13//13 21//21 19//19
f 65//63 64//62 63//61 66//64
f 59//57 62//60 66//64 63//61
f 61//59 60//58 64//62 65//63
f 62//60 61//59 65//63 66//64
f 60//58 59//57 63//61 64//62
f 68//66 69//67 70//68 67//65
f 69//67 71//69 72//70 70//68
f 71//69 73//71 74//72 72//70
f 73//71 68//66 67//65 74//72
f 71//69 69//67 68//66 73//71
f 81//63 80//62 79//61 82//64
f 75//57 78//60 82//64 79//61
f 77//59 76//58 80//62 81//63
f 78//60 77//59 81//63 82//64
f 76//58 75//57 79//61 80//62
l 40 5
l 4 39
l 39 40
